<?xml version="1.0" standalone="no"?>
<!DOCTYPE svg PUBLIC "-//W3C//DTD SVG 1.1//EN" "http://www.w3.org/Graphics/SVG/1.1/DTD/svg11.dtd" >
<svg xmlns="http://www.w3.org/2000/svg" xmlns:xlink="http://www.w3.org/1999/xlink" version="1.1">
<metadata>
Created by FontForge 20170924 at Mon Nov 30 19:38:32 2015
 By www-data
Copyright \(c\) 2015 by Mariya Pigoulevskaya. All rights reserved.
</metadata>
<defs>
<font id="Stolzl-Regular" horiz-adv-x="0" >
  <font-face 
    font-family="Stolzl"
    font-weight="400"
    font-stretch="normal"
    units-per-em="1000"
    panose-1="0 0 5 0 0 0 0 0 0 0"
    ascent="800"
    descent="-200"
    x-height="550"
    cap-height="700"
    bbox="-561 -262 1435 1055"
    underline-thickness="50"
    underline-position="-100"
    stemh="108"
    stemv="113"
    unicode-range="U+0020-25CA"
  />
<missing-glyph horiz-adv-x="510" 
d="M418 770v-1020h-323v1020h323zM340 702h-169v-34h67v-38h-68v-33h170v33h-68v38h68v34zM272 570h-102v-106h170v35h-68v71zM238 535v-36h-34v36h34zM340 436h-170v-33h68v-38h-68v-34h102v72h68v33zM340 375h-34v-67h-136v-35h170v102zM340 251h-102v-57h34v23h34v-48
h-102v82h-34v-115h170v115zM340 74h-170v-115h170v115zM306 41v-48h-102v48h102zM340 -64h-170v-34h72l-72 -48v-34h170v34h-104l71 48h33v34z" />
    <glyph glyph-name=".notdef" horiz-adv-x="510" 
d="M418 770v-1020h-323v1020h323zM340 702h-169v-34h67v-38h-68v-33h170v33h-68v38h68v34zM272 570h-102v-106h170v35h-68v71zM238 535v-36h-34v36h34zM340 436h-170v-33h68v-38h-68v-34h102v72h68v33zM340 375h-34v-67h-136v-35h170v102zM340 251h-102v-57h34v23h34v-48
h-102v82h-34v-115h170v115zM340 74h-170v-115h170v115zM306 41v-48h-102v48h102zM340 -64h-170v-34h72l-72 -48v-34h170v34h-104l71 48h33v34z" />
    <glyph glyph-name="A" unicode="A" horiz-adv-x="748" 
d="M597 0l-71 188h-304l-71 -188h-120l271 700h144l271 -700h-120zM263 295h222l-111 293z" />
    <glyph glyph-name="Aacute" unicode="&#xc1;" horiz-adv-x="748" 
d="M489 917l-180 -147l-51 51l163 164zM597 0l-71 188h-304l-71 -188h-120l271 700h144l271 -700h-120zM263 295h222l-111 293z" />
    <glyph glyph-name="Abreve" unicode="&#x102;" horiz-adv-x="748" 
d="M374 777c-88 0 -164 59 -164 156v22h90v-19c0 -44 29 -72 74 -72c44 0 73 28 73 72v19h90v-22c0 -97 -76 -156 -163 -156zM597 0l-71 188h-304l-71 -188h-120l271 700h144l271 -700h-120zM263 295h222l-111 293z" />
    <glyph glyph-name="Acircumflex" unicode="&#xc2;" horiz-adv-x="748" 
d="M374 878l-102 -108l-61 61l163 164l164 -164l-62 -61zM597 0l-71 188h-304l-71 -188h-120l271 700h144l271 -700h-120zM263 295h222l-111 293z" />
    <glyph glyph-name="Adieresis" unicode="&#xc4;" horiz-adv-x="748" 
d="M260 809c-38 0 -67 28 -67 65s29 65 67 65c39 0 67 -28 67 -65s-28 -65 -67 -65zM487 809c-39 0 -68 28 -68 65s29 65 68 65s68 -28 68 -65s-29 -65 -68 -65zM597 0l-71 188h-304l-71 -188h-120l271 700h144l271 -700h-120zM263 295h222l-111 293z" />
    <glyph glyph-name="Agrave" unicode="&#xc0;" horiz-adv-x="748" 
d="M489 821l-52 -51l-179 147l67 68zM597 0l-71 188h-304l-71 -188h-120l271 700h144l271 -700h-120zM263 295h222l-111 293z" />
    <glyph glyph-name="Amacron" unicode="&#x100;" horiz-adv-x="748" 
d="M499 915v-84h-250v84h250zM597 0l-71 188h-304l-71 -188h-120l271 700h144l271 -700h-120zM263 295h222l-111 293z" />
    <glyph glyph-name="Aogonek" unicode="&#x104;" horiz-adv-x="748" 
d="M717 0c-70 -77 -102 -113 -102 -152c0 -32 21 -46 59 -46c18 0 35 3 43 5v-65c-8 -1 -39 -4 -61 -4c-75 0 -129 28 -129 96c0 61 48 105 115 166h-45l-71 188h-304l-71 -188h-120l271 700h144zM263 295h222l-111 293z" />
    <glyph glyph-name="Aring" unicode="&#xc5;" horiz-adv-x="748" 
d="M373 770c-69 0 -125 56 -125 126s55 126 125 126s127 -56 126 -126c1 -70 -57 -126 -126 -126zM373 955c-32 0 -59 -25 -58 -60c-1 -34 26 -60 58 -60c33 0 59 26 59 60c0 35 -26 60 -59 60zM597 0l-71 188h-304l-71 -188h-120l271 700h144l271 -700h-120zM263 295h222
l-111 293z" />
    <glyph glyph-name="Atilde" unicode="&#xc3;" horiz-adv-x="748" 
d="M305 852c-25 0 -37 -21 -37 -63h-70c0 111 42 151 103 151c33 0 50 -12 81 -38c22 -18 39 -33 60 -33c25 0 38 22 38 64h70c0 -111 -43 -152 -104 -152c-32 0 -50 12 -81 38c-21 18 -38 33 -60 33zM597 0l-71 188h-304l-71 -188h-120l271 700h144l271 -700h-120zM263 295
h222l-111 293z" />
    <glyph glyph-name="AE" unicode="&#xc6;" horiz-adv-x="874" 
d="M833 592h-344v-181h318v-108h-318v-195h344v-108h-457v188h-154l-71 -188h-120l271 700h144h387v-108zM263 295h113v298z" />
    <glyph glyph-name="B" unicode="B" horiz-adv-x="657" 
d="M500 374c79 -24 116 -91 116 -176c0 -123 -85 -198 -232 -198h-302v700h298c136 0 213 -65 213 -180c0 -71 -30 -117 -93 -146zM479 502c0 61 -32 90 -113 90h-171v-180h172c82 0 112 33 112 90zM381 108c92 0 121 39 121 99c0 64 -30 101 -122 101h-185v-200h186z" />
    <glyph glyph-name="C" unicode="C" horiz-adv-x="792" 
d="M416 -12c-208 0 -361 155 -361 362s153 362 361 362c162 0 291 -98 335 -243h-121c-37 82 -116 135 -215 135c-143 0 -246 -108 -246 -254s103 -254 246 -254c99 0 178 53 215 135h121c-44 -145 -173 -243 -335 -243z" />
    <glyph glyph-name="Cacute" unicode="&#x106;" horiz-adv-x="792" 
d="M443 985l68 -68l-180 -147l-51 51zM416 -12c-208 0 -361 155 -361 362s153 362 361 362c162 0 291 -98 335 -243h-121c-37 82 -116 135 -215 135c-143 0 -246 -108 -246 -254s103 -254 246 -254c99 0 178 53 215 135h121c-44 -145 -173 -243 -335 -243z" />
    <glyph glyph-name="Ccaron" unicode="&#x10c;" horiz-adv-x="792" 
d="M560 936l-164 -164l-163 164l61 61l102 -108l102 108zM416 -12c-208 0 -361 155 -361 362s153 362 361 362c162 0 291 -98 335 -243h-121c-37 82 -116 135 -215 135c-143 0 -246 -108 -246 -254s103 -254 246 -254c99 0 178 53 215 135h121c-44 -145 -173 -243 -335 -243
z" />
    <glyph glyph-name="Ccedilla" unicode="&#xc7;" horiz-adv-x="792" 
d="M415 96c99 0 178 53 215 135h121c-43 -140 -165 -237 -321 -243l-34 -67c48 -9 92 -36 92 -90c0 -63 -59 -93 -145 -93c-24 0 -51 3 -59 4v58c8 -1 26 -4 46 -4c42 0 70 13 70 41c0 25 -22 44 -91 50l46 106c-176 27 -300 171 -300 357c0 207 153 362 361 362
c162 0 291 -98 335 -243h-121c-37 82 -116 135 -215 135c-143 0 -246 -108 -246 -254s103 -254 246 -254z" />
    <glyph glyph-name="D" unicode="D" horiz-adv-x="737" 
d="M327 700c204 0 358 -147 358 -350c0 -202 -155 -350 -358 -350h-245v700h245zM328 108c141 0 244 99 244 242c0 142 -103 242 -244 242h-133v-484h133z" />
    <glyph glyph-name="Eth" unicode="&#xd0;" horiz-adv-x="737" 
d="M327 700c204 0 358 -147 358 -350c0 -202 -155 -350 -358 -350h-245v296h-64v108h64v296h245zM328 108c141 0 244 99 244 242c0 142 -103 242 -244 242h-133v-188h122v-108h-122v-188h133z" />
    <glyph glyph-name="Dcaron" unicode="&#x10e;" horiz-adv-x="737" 
d="M491 936l-164 -164l-163 164l61 61l102 -108l102 108zM327 700c204 0 358 -147 358 -350c0 -202 -155 -350 -358 -350h-245v700h245zM328 108c141 0 244 99 244 242c0 142 -103 242 -244 242h-133v-484h133z" />
    <glyph glyph-name="Dcroat" unicode="&#x110;" horiz-adv-x="737" 
d="M327 700c204 0 358 -147 358 -350c0 -202 -155 -350 -358 -350h-245v296h-64v108h64v296h245zM328 108c141 0 244 99 244 242c0 142 -103 242 -244 242h-133v-188h122v-108h-122v-188h133z" />
    <glyph glyph-name="E" unicode="E" horiz-adv-x="580" 
d="M539 592h-344v-181h319v-108h-319v-195h344v-108h-457v700h457v-108z" />
    <glyph glyph-name="Eacute" unicode="&#xc9;" horiz-adv-x="580" 
d="M406 917l-180 -147l-51 51l163 164zM539 592h-344v-181h319v-108h-319v-195h344v-108h-457v700h457v-108z" />
    <glyph glyph-name="Ecaron" unicode="&#x11a;" horiz-adv-x="580" 
d="M454 936l-164 -164l-163 164l61 61l102 -108l102 108zM539 592h-344v-181h319v-108h-319v-195h344v-108h-457v700h457v-108z" />
    <glyph glyph-name="Ecircumflex" unicode="&#xca;" horiz-adv-x="580" 
d="M290 878l-102 -108l-61 61l163 164l164 -164l-62 -61zM539 592h-344v-181h319v-108h-319v-195h344v-108h-457v700h457v-108z" />
    <glyph glyph-name="Edieresis" unicode="&#xcb;" horiz-adv-x="580" 
d="M176 809c-38 0 -67 28 -67 65s29 65 67 65c39 0 67 -28 67 -65s-28 -65 -67 -65zM403 809c-39 0 -68 28 -68 65s29 65 68 65s68 -28 68 -65s-29 -65 -68 -65zM539 592h-344v-181h319v-108h-319v-195h344v-108h-457v700h457v-108z" />
    <glyph glyph-name="Edotaccent" unicode="&#x116;" horiz-adv-x="580" 
d="M290 809c-38 0 -67 28 -67 65s29 65 67 65c39 0 67 -28 67 -65s-28 -65 -67 -65zM539 592h-344v-181h319v-108h-319v-195h344v-108h-457v700h457v-108z" />
    <glyph glyph-name="Egrave" unicode="&#xc8;" horiz-adv-x="580" 
d="M406 821l-52 -51l-179 147l67 68zM539 592h-344v-181h319v-108h-319v-195h344v-108h-457v700h457v-108z" />
    <glyph glyph-name="Emacron" unicode="&#x112;" horiz-adv-x="580" 
d="M415 915v-84h-250v84h250zM539 592h-344v-181h319v-108h-319v-195h344v-108h-457v700h457v-108z" />
    <glyph glyph-name="Eogonek" unicode="&#x118;" horiz-adv-x="580" 
d="M539 592h-344v-181h319v-108h-319v-195h344v-108c-70 -77 -102 -113 -102 -152c0 -32 21 -46 59 -46c18 0 35 3 43 5v-65c-8 -1 -39 -4 -61 -4c-75 0 -129 28 -129 96c0 61 48 105 115 166h-382v700h457v-108z" />
    <glyph glyph-name="F" unicode="F" horiz-adv-x="580" 
d="M539 592h-344v-186h319v-108h-319v-298h-113v700h457v-108z" />
    <glyph glyph-name="G" unicode="G" horiz-adv-x="831" 
d="M376 372h378v-372h-98v140c-33 -90 -128 -152 -253 -152c-198 0 -351 152 -351 361s154 363 361 363c163 0 291 -96 335 -238h-121c-38 80 -116 130 -215 130c-143 0 -246 -107 -246 -257c0 -142 94 -254 245 -254c117 0 210 69 228 183h-263v96z" />
    <glyph glyph-name="Gcommaaccent" unicode="&#x122;" horiz-adv-x="831" 
d="M376 372h378v-372h-98v140c-33 -90 -128 -152 -253 -152c-198 0 -351 152 -351 361s154 363 361 363c163 0 291 -96 335 -238h-121c-38 80 -116 130 -215 130c-143 0 -246 -107 -246 -257c0 -142 94 -254 245 -254c117 0 210 69 228 183h-263v96zM419 -64
c28 0 56 -18 57 -53c1 -18 -7 -42 -53 -133h-65l46 87c-26 4 -43 21 -43 46c0 33 28 53 58 53z" />
    <glyph glyph-name="H" unicode="H" horiz-adv-x="748" 
d="M554 700h113v-700h-113v306h-359v-306h-113v700h113v-286h359v286z" />
    <glyph glyph-name="I" unicode="I" horiz-adv-x="277" 
d="M82 0v700h113v-700h-113z" />
    <glyph glyph-name="Iacute" unicode="&#xcd;" horiz-adv-x="277" 
d="M185 985l68 -68l-180 -147l-51 51zM82 0v700h113v-700h-113z" />
    <glyph glyph-name="Icircumflex" unicode="&#xce;" horiz-adv-x="277" 
d="M302 831l-62 -61l-102 108l-102 -108l-61 61l163 164zM82 0v700h113v-700h-113z" />
    <glyph glyph-name="Idieresis" unicode="&#xcf;" horiz-adv-x="277" 
d="M24 939c39 0 67 -28 67 -65s-28 -65 -67 -65c-38 0 -67 28 -67 65s29 65 67 65zM251 939c39 0 68 -28 68 -65s-29 -65 -68 -65s-68 28 -68 65s29 65 68 65zM82 0v700h113v-700h-113z" />
    <glyph glyph-name="Igrave" unicode="&#xcc;" horiz-adv-x="277" 
d="M89 985l164 -164l-52 -51l-179 147zM82 0v700h113v-700h-113z" />
    <glyph glyph-name="Imacron" unicode="&#x12a;" horiz-adv-x="277" 
d="M263 915v-84h-250v84h250zM82 0v700h113v-700h-113z" />
    <glyph glyph-name="Iogonek" unicode="&#x12e;" horiz-adv-x="277" 
d="M82 700h113v-700c-70 -77 -102 -113 -102 -152c0 -32 21 -46 59 -46c18 0 35 3 43 5v-65c-8 -1 -39 -4 -61 -4c-75 0 -129 28 -129 96c0 61 48 105 115 166h-38v700z" />
    <glyph glyph-name="J" unicode="J" horiz-adv-x="571" 
d="M375 700h114v-474c0 -156 -101 -238 -231 -238c-128 0 -227 79 -227 234v41h114v-38c0 -95 48 -129 114 -129s116 36 116 133v471z" />
    <glyph glyph-name="K" unicode="K" horiz-adv-x="665" 
d="M634 0h-143l-296 334v-334h-113v700h113v-320l283 320h142l-302 -341z" />
    <glyph glyph-name="Kcommaaccent" unicode="&#x136;" horiz-adv-x="665" 
d="M318 359l316 -359h-143l-296 334v-334h-113v700h113v-320l283 320h142zM337 -64c28 0 56 -18 57 -53c1 -18 -7 -42 -53 -133h-65l46 87c-26 4 -43 21 -43 46c0 33 28 53 58 53z" />
    <glyph glyph-name="L" unicode="L" horiz-adv-x="544" 
d="M195 108h319v-108h-432v700h113v-592z" />
    <glyph glyph-name="Lacute" unicode="&#x139;" horiz-adv-x="544" 
d="M388 917l-180 -147l-51 51l163 164zM195 108h319v-108h-432v700h113v-592z" />
    <glyph glyph-name="Lcaron" unicode="&#x13d;" horiz-adv-x="544" 
d="M385 526h-64l46 87c-26 4 -43 20 -43 46c0 33 28 53 57 53c28 0 57 -19 58 -53c0 -18 -7 -42 -54 -133zM195 108h319v-108h-432v700h113v-592z" />
    <glyph glyph-name="Lcommaaccent" unicode="&#x13b;" horiz-adv-x="544" 
d="M195 108h319v-108h-432v700h113v-592zM277 -64c28 0 56 -18 57 -53c1 -18 -7 -42 -53 -133h-65l46 87c-26 4 -43 21 -43 46c0 33 28 53 58 53z" />
    <glyph glyph-name="Lslash" unicode="&#x141;" horiz-adv-x="544" 
d="M195 108h319v-108h-432v261l-64 -16v108l64 16v331h113v-303l123 30v-108l-123 -30v-181z" />
    <glyph glyph-name="M" unicode="M" horiz-adv-x="827" 
d="M612 700h133v-700h-113v547l-216 -326h-11l-215 326v-547h-113v700h133l201 -302z" />
    <glyph glyph-name="N" unicode="N" horiz-adv-x="740" 
d="M550 700h113v-700h-134l-350 541l11 -248v-293h-113v700h133l350 -540l-10 247v293z" />
    <glyph glyph-name="Nacute" unicode="&#x143;" horiz-adv-x="740" 
d="M485 917l-180 -147l-51 51l163 164zM550 700h113v-700h-134l-350 541l11 -248v-293h-113v700h133l350 -540l-10 247v293z" />
    <glyph glyph-name="Ncaron" unicode="&#x147;" horiz-adv-x="740" 
d="M533 936l-164 -164l-163 164l61 61l102 -108l102 108zM550 700h113v-700h-134l-350 541l11 -248v-293h-113v700h133l350 -540l-10 247v293z" />
    <glyph glyph-name="Ncommaaccent" unicode="&#x145;" horiz-adv-x="740" 
d="M550 700h113v-700h-134l-350 541l11 -248v-293h-113v700h133l350 -540l-10 247v293zM374 -64c28 0 56 -18 57 -53c1 -18 -7 -42 -53 -133h-65l46 87c-26 4 -43 21 -43 46c0 33 28 53 58 53z" />
    <glyph glyph-name="Eng" unicode="&#x14a;" horiz-adv-x="740" 
d="M550 700h113v-700v-39c0 -152 -88 -223 -202 -223c-63 0 -126 22 -156 40l19 92c44 -15 82 -27 118 -27c71 0 108 44 108 124v33h-21l-350 541l11 -248v-293h-113v700h133l350 -540l-10 247v293z" />
    <glyph glyph-name="Ntilde" unicode="&#xd1;" horiz-adv-x="740" 
d="M301 852c-25 0 -37 -21 -37 -63h-70c0 111 42 151 103 151c33 0 50 -12 81 -38c22 -18 39 -33 60 -33c25 0 38 22 38 64h70c0 -111 -43 -152 -104 -152c-32 0 -50 12 -81 38c-21 18 -38 33 -60 33zM550 700h113v-700h-134l-350 541l11 -248v-293h-113v700h133l350 -540
l-10 247v293z" />
    <glyph glyph-name="O" unicode="O" horiz-adv-x="829" 
d="M415 712c205 0 362 -156 363 -362c-1 -206 -158 -362 -363 -362s-363 156 -363 362s158 362 363 362zM415 604c-142 0 -249 -108 -249 -254s107 -254 249 -254c141 0 248 108 248 254s-107 254 -248 254z" />
    <glyph glyph-name="Oacute" unicode="&#xd3;" horiz-adv-x="829" 
d="M462 985l68 -68l-180 -147l-51 51zM415 712c205 0 362 -156 363 -362c-1 -206 -158 -362 -363 -362s-363 156 -363 362s158 362 363 362zM415 604c-142 0 -249 -108 -249 -254s107 -254 249 -254c141 0 248 108 248 254s-107 254 -248 254z" />
    <glyph glyph-name="Ocircumflex" unicode="&#xd4;" horiz-adv-x="829" 
d="M578 831l-62 -61l-102 108l-102 -108l-61 61l163 164zM415 712c205 0 362 -156 363 -362c-1 -206 -158 -362 -363 -362s-363 156 -363 362s158 362 363 362zM415 604c-142 0 -249 -108 -249 -254s107 -254 249 -254c141 0 248 108 248 254s-107 254 -248 254z" />
    <glyph glyph-name="Odieresis" unicode="&#xd6;" horiz-adv-x="829" 
d="M300 939c39 0 67 -28 67 -65s-28 -65 -67 -65c-38 0 -67 28 -67 65s29 65 67 65zM527 939c39 0 68 -28 68 -65s-29 -65 -68 -65s-68 28 -68 65s29 65 68 65zM415 712c205 0 362 -156 363 -362c-1 -206 -158 -362 -363 -362s-363 156 -363 362s158 362 363 362zM415 604
c-142 0 -249 -108 -249 -254s107 -254 249 -254c141 0 248 108 248 254s-107 254 -248 254z" />
    <glyph glyph-name="Ograve" unicode="&#xd2;" horiz-adv-x="829" 
d="M366 985l164 -164l-52 -51l-179 147zM415 712c205 0 362 -156 363 -362c-1 -206 -158 -362 -363 -362s-363 156 -363 362s158 362 363 362zM415 604c-142 0 -249 -108 -249 -254s107 -254 249 -254c141 0 248 108 248 254s-107 254 -248 254z" />
    <glyph glyph-name="Ohungarumlaut" unicode="&#x150;" horiz-adv-x="829" 
d="M362 992l70 -33l-118 -189l-51 25zM496 992l70 -33l-118 -189l-51 25zM415 712c205 0 362 -156 363 -362c-1 -206 -158 -362 -363 -362s-363 156 -363 362s158 362 363 362zM415 604c-142 0 -249 -108 -249 -254s107 -254 249 -254c141 0 248 108 248 254
s-107 254 -248 254z" />
    <glyph glyph-name="Omacron" unicode="&#x14c;" horiz-adv-x="829" 
d="M540 915v-84h-250v84h250zM415 712c205 0 362 -156 363 -362c-1 -206 -158 -362 -363 -362s-363 156 -363 362s158 362 363 362zM415 604c-142 0 -249 -108 -249 -254s107 -254 249 -254c141 0 248 108 248 254s-107 254 -248 254z" />
    <glyph glyph-name="Oslash" unicode="&#xd8;" horiz-adv-x="829" 
d="M616 654c98 -63 161 -173 162 -304c-1 -206 -158 -362 -363 -362c-38 0 -74 5 -108 15l-18 -38h-114l38 81c-98 63 -161 174 -161 304c0 206 158 362 363 362c37 0 73 -5 106 -15l18 38h115zM166 350c0 -85 37 -157 95 -203l213 450c-19 5 -39 7 -59 7
c-142 0 -249 -108 -249 -254zM415 96c141 0 248 108 248 254c0 86 -37 158 -95 203l-214 -450c20 -5 40 -7 61 -7z" />
    <glyph glyph-name="Otilde" unicode="&#xd5;" horiz-adv-x="829" 
d="M520 933h70c0 -111 -43 -152 -104 -152c-32 0 -50 12 -81 38c-21 18 -38 33 -60 33c-25 0 -37 -21 -37 -63h-70c0 111 42 151 103 151c33 0 50 -12 81 -38c22 -18 39 -33 60 -33c25 0 38 22 38 64zM415 712c205 0 362 -156 363 -362c-1 -206 -158 -362 -363 -362
s-363 156 -363 362s158 362 363 362zM415 604c-142 0 -249 -108 -249 -254s107 -254 249 -254c141 0 248 108 248 254s-107 254 -248 254z" />
    <glyph glyph-name="OE" unicode="&#x152;" horiz-adv-x="1162" 
d="M1121 592h-345v-181h319v-108h-319v-195h345v-108h-458v92c-60 -64 -148 -104 -248 -104c-205 0 -363 156 -363 362s158 362 363 362c100 0 188 -40 248 -104v92h458v-108zM415 96c141 0 248 108 248 254s-107 254 -248 254c-142 0 -249 -108 -249 -254
s107 -254 249 -254z" />
    <glyph glyph-name="P" unicode="P" horiz-adv-x="666" 
d="M369 700c153 0 246 -92 246 -230c0 -137 -93 -233 -246 -233h-174v-237h-113v700h287zM365 345c92 0 135 53 135 124s-43 123 -135 123h-170v-247h170z" />
    <glyph glyph-name="Thorn" unicode="&#xde;" horiz-adv-x="666" 
d="M369 608c153 0 246 -92 246 -230s-93 -233 -246 -233h-174v-145h-113v700h113v-92h174zM365 253c92 0 135 53 135 124s-43 123 -135 123h-170v-247h170z" />
    <glyph glyph-name="Q" unicode="Q" horiz-adv-x="829" 
d="M778 350c-1 -104 -41 -196 -108 -261l108 -142l-87 -65l-109 145c-50 -25 -107 -39 -167 -39c-205 0 -363 156 -363 362s158 362 363 362s362 -156 363 -362zM166 350c0 -146 107 -254 249 -254c141 0 248 108 248 254s-107 254 -248 254c-142 0 -249 -108 -249 -254z
" />
    <glyph glyph-name="R" unicode="R" horiz-adv-x="673" 
d="M503 0l-200 261h-108v-261h-113v700h289c152 0 238 -90 238 -222c0 -115 -65 -190 -176 -211l209 -267h-139zM195 592v-231h164c93 0 136 48 136 116s-44 115 -136 115h-164z" />
    <glyph glyph-name="Racute" unicode="&#x154;" horiz-adv-x="673" 
d="M452 917l-180 -147l-51 51l163 164zM503 0l-200 261h-108v-261h-113v700h289c152 0 238 -90 238 -222c0 -115 -65 -190 -176 -211l209 -267h-139zM195 592v-231h164c93 0 136 48 136 116s-44 115 -136 115h-164z" />
    <glyph glyph-name="Rcaron" unicode="&#x158;" horiz-adv-x="673" 
d="M500 936l-164 -164l-163 164l61 61l102 -108l102 108zM503 0l-200 261h-108v-261h-113v700h289c152 0 238 -90 238 -222c0 -115 -65 -190 -176 -211l209 -267h-139zM195 592v-231h164c93 0 136 48 136 116s-44 115 -136 115h-164z" />
    <glyph glyph-name="Rcommaaccent" unicode="&#x156;" horiz-adv-x="673" 
d="M433 267l209 -267h-139l-200 261h-108v-261h-113v700h289c152 0 238 -90 238 -222c0 -115 -65 -190 -176 -211zM195 592v-231h164c93 0 136 48 136 116s-44 115 -136 115h-164zM341 -64c28 0 56 -18 57 -53c1 -18 -7 -42 -53 -133h-65l46 87c-26 4 -43 21 -43 46
c0 33 28 53 58 53z" />
    <glyph glyph-name="S" unicode="S" horiz-adv-x="644" 
d="M329 412c177 -39 274 -76 274 -211c0 -153 -136 -213 -261 -213c-196 0 -282 108 -301 229h114c21 -81 75 -123 186 -123c94 0 148 37 148 102s-57 76 -187 105c-136 30 -242 68 -242 199c0 139 123 212 257 212c176 0 257 -91 277 -202h-114c-20 58 -68 96 -162 96
s-145 -42 -145 -103c0 -50 40 -66 156 -91z" />
    <glyph glyph-name="Sacute" unicode="&#x15a;" horiz-adv-x="644" 
d="M369 985l68 -68l-180 -147l-51 51zM329 412c177 -39 274 -76 274 -211c0 -153 -136 -213 -261 -213c-196 0 -282 108 -301 229h114c21 -81 75 -123 186 -123c94 0 148 37 148 102s-57 76 -187 105c-136 30 -242 68 -242 199c0 139 123 212 257 212
c176 0 257 -91 277 -202h-114c-20 58 -68 96 -162 96s-145 -42 -145 -103c0 -50 40 -66 156 -91z" />
    <glyph glyph-name="Scaron" unicode="&#x160;" horiz-adv-x="644" 
d="M486 936l-164 -164l-163 164l61 61l102 -108l102 108zM329 412c177 -39 274 -76 274 -211c0 -153 -136 -213 -261 -213c-196 0 -282 108 -301 229h114c21 -81 75 -123 186 -123c94 0 148 37 148 102s-57 76 -187 105c-136 30 -242 68 -242 199c0 139 123 212 257 212
c176 0 257 -91 277 -202h-114c-20 58 -68 96 -162 96s-145 -42 -145 -103c0 -50 40 -66 156 -91z" />
    <glyph glyph-name="Scedilla" unicode="&#x15e;" horiz-adv-x="644" 
d="M603 201c0 -147 -125 -208 -246 -213l-34 -67c48 -9 92 -36 92 -90c0 -63 -59 -93 -145 -93c-24 0 -51 3 -59 4v58c8 -1 26 -4 46 -4c42 0 70 13 70 41c0 25 -22 44 -91 50l45 105c-153 20 -223 117 -240 225h114c21 -81 75 -123 186 -123c94 0 148 37 148 102
s-57 76 -187 105c-136 30 -242 68 -242 199c0 139 123 212 257 212c176 0 257 -91 277 -202h-114c-20 58 -68 96 -162 96s-145 -42 -145 -103c0 -50 40 -66 156 -91c177 -39 274 -76 274 -211z" />
    <glyph glyph-name="T" unicode="T" horiz-adv-x="602" 
d="M571 700v-108h-214v-592h-113v592h-213v108h540z" />
    <glyph glyph-name="Tbar" unicode="&#x166;" horiz-adv-x="602" 
d="M571 592h-214v-188h94v-108h-94v-296h-113v296h-92v108h92v188h-213v108h540v-108z" />
    <glyph glyph-name="Tcaron" unicode="&#x164;" horiz-adv-x="602" 
d="M465 936l-164 -164l-163 164l61 61l102 -108l102 108zM571 700v-108h-214v-592h-113v592h-213v108h540z" />
    <glyph glyph-name="uni0162" unicode="&#x162;" horiz-adv-x="602" 
d="M357 0h-15l-40 -79c48 -9 92 -36 92 -90c0 -63 -59 -93 -145 -93c-24 0 -51 3 -59 4v58c8 -1 26 -4 46 -4c42 0 70 13 70 41c0 25 -22 44 -91 50l49 113h-20v592h-213v108h540v-108h-214v-592z" />
    <glyph glyph-name="U" unicode="U" horiz-adv-x="725" 
d="M533 700h115v-421c0 -195 -122 -291 -283 -291s-283 96 -283 291v421h115v-414c0 -136 71 -190 168 -190s168 54 168 190v414z" />
    <glyph glyph-name="Uacute" unicode="&#xda;" horiz-adv-x="725" 
d="M410 985l68 -68l-180 -147l-51 51zM533 700h115v-421c0 -195 -122 -291 -283 -291s-283 96 -283 291v421h115v-414c0 -136 71 -190 168 -190s168 54 168 190v414z" />
    <glyph glyph-name="Ucircumflex" unicode="&#xdb;" horiz-adv-x="725" 
d="M527 831l-62 -61l-102 108l-102 -108l-61 61l163 164zM533 700h115v-421c0 -195 -122 -291 -283 -291s-283 96 -283 291v421h115v-414c0 -136 71 -190 168 -190s168 54 168 190v414z" />
    <glyph glyph-name="Udieresis" unicode="&#xdc;" horiz-adv-x="725" 
d="M249 939c39 0 67 -28 67 -65s-28 -65 -67 -65c-38 0 -67 28 -67 65s29 65 67 65zM476 939c39 0 68 -28 68 -65s-29 -65 -68 -65s-68 28 -68 65s29 65 68 65zM533 700h115v-421c0 -195 -122 -291 -283 -291s-283 96 -283 291v421h115v-414c0 -136 71 -190 168 -190
s168 54 168 190v414z" />
    <glyph glyph-name="Ugrave" unicode="&#xd9;" horiz-adv-x="725" 
d="M314 985l164 -164l-52 -51l-179 147zM533 700h115v-421c0 -195 -122 -291 -283 -291s-283 96 -283 291v421h115v-414c0 -136 71 -190 168 -190s168 54 168 190v414z" />
    <glyph glyph-name="Uhungarumlaut" unicode="&#x170;" horiz-adv-x="725" 
d="M310 992l70 -33l-118 -189l-51 25zM444 992l70 -33l-118 -189l-51 25zM533 700h115v-421c0 -195 -122 -291 -283 -291s-283 96 -283 291v421h115v-414c0 -136 71 -190 168 -190s168 54 168 190v414z" />
    <glyph glyph-name="Umacron" unicode="&#x16a;" horiz-adv-x="725" 
d="M488 915v-84h-250v84h250zM533 700h115v-421c0 -195 -122 -291 -283 -291s-283 96 -283 291v421h115v-414c0 -136 71 -190 168 -190s168 54 168 190v414z" />
    <glyph glyph-name="Uogonek" unicode="&#x172;" horiz-adv-x="725" 
d="M533 700h115v-421c0 -155 -78 -248 -191 -279c-70 -77 -102 -113 -102 -152c0 -32 21 -46 59 -46c18 0 35 3 43 5v-65c-8 -1 -39 -4 -61 -4c-75 0 -129 28 -129 96c0 57 42 99 102 154h-4c-161 0 -283 96 -283 291v421h115v-414c0 -136 71 -190 168 -190s168 54 168 190
v414z" />
    <glyph glyph-name="Uring" unicode="&#x16e;" horiz-adv-x="725" 
d="M362 1022c70 0 127 -56 126 -126c1 -70 -57 -126 -126 -126s-125 56 -125 126s55 126 125 126zM362 955c-32 0 -59 -25 -58 -60c-1 -34 26 -60 58 -60c33 0 59 26 59 60c0 35 -26 60 -59 60zM533 700h115v-421c0 -195 -122 -291 -283 -291s-283 96 -283 291v421h115v-414
c0 -136 71 -190 168 -190s168 54 168 190v414z" />
    <glyph glyph-name="V" unicode="V" horiz-adv-x="687" 
d="M536 700h120l-241 -700h-144l-240 700h120l192 -570z" />
    <glyph glyph-name="W" unicode="W" horiz-adv-x="1004" 
d="M857 700h116l-186 -700h-141l-67 253l-68 313h-18l-67 -313l-67 -253h-142l-186 700h116l89 -335l53 -247l53 247l88 335h144l88 -335l54 -248l53 248z" />
    <glyph glyph-name="Wacute" unicode="&#x1e82;" horiz-adv-x="1004" 
d="M618 917l-180 -147l-51 51l163 164zM857 700h116l-186 -700h-141l-67 253l-68 313h-18l-67 -313l-67 -253h-142l-186 700h116l89 -335l53 -247l53 247l88 335h144l88 -335l54 -248l53 248z" />
    <glyph glyph-name="Wcircumflex" unicode="&#x174;" horiz-adv-x="1004" 
d="M502 878l-102 -108l-61 61l163 164l164 -164l-62 -61zM857 700h116l-186 -700h-141l-67 253l-68 313h-18l-67 -313l-67 -253h-142l-186 700h116l89 -335l53 -247l53 247l88 335h144l88 -335l54 -248l53 248z" />
    <glyph glyph-name="Wdieresis" unicode="&#x1e84;" horiz-adv-x="1004" 
d="M388 809c-38 0 -67 28 -67 65s29 65 67 65c39 0 67 -28 67 -65s-28 -65 -67 -65zM615 809c-39 0 -68 28 -68 65s29 65 68 65s68 -28 68 -65s-29 -65 -68 -65zM857 700h116l-186 -700h-141l-67 253l-68 313h-18l-67 -313l-67 -253h-142l-186 700h116l89 -335l53 -247
l53 247l88 335h144l88 -335l54 -248l53 248z" />
    <glyph glyph-name="Wgrave" unicode="&#x1e80;" horiz-adv-x="1004" 
d="M618 821l-52 -51l-179 147l67 68zM857 700h116l-186 -700h-141l-67 253l-68 313h-18l-67 -313l-67 -253h-142l-186 700h116l89 -335l53 -247l53 247l88 335h144l88 -335l54 -248l53 248z" />
    <glyph glyph-name="X" unicode="X" horiz-adv-x="658" 
d="M627 0h-134l-165 266l-163 -266h-134l228 361l-218 339h135l155 -250l155 250h134l-220 -346z" />
    <glyph glyph-name="Y" unicode="Y" horiz-adv-x="681" 
d="M650 700l-252 -459l-1 -241h-113v239l-253 461h128l182 -334l182 334h127z" />
    <glyph glyph-name="Yacute" unicode="&#xdd;" horiz-adv-x="681" 
d="M456 917l-180 -147l-51 51l163 164zM650 700l-252 -459l-1 -241h-113v239l-253 461h128l182 -334l182 334h127z" />
    <glyph glyph-name="Ycircumflex" unicode="&#x176;" horiz-adv-x="681" 
d="M341 878l-102 -108l-61 61l163 164l164 -164l-62 -61zM650 700l-252 -459l-1 -241h-113v239l-253 461h128l182 -334l182 334h127z" />
    <glyph glyph-name="Ydieresis" unicode="&#x178;" horiz-adv-x="681" 
d="M227 809c-38 0 -67 28 -67 65s29 65 67 65c39 0 67 -28 67 -65s-28 -65 -67 -65zM454 809c-39 0 -68 28 -68 65s29 65 68 65s68 -28 68 -65s-29 -65 -68 -65zM650 700l-252 -459l-1 -241h-113v239l-253 461h128l182 -334l182 334h127z" />
    <glyph glyph-name="Ygrave" unicode="&#x1ef2;" horiz-adv-x="681" 
d="M456 821l-52 -51l-179 147l67 68zM650 700l-252 -459l-1 -241h-113v239l-253 461h128l182 -334l182 334h127z" />
    <glyph glyph-name="Z" unicode="Z" horiz-adv-x="596" 
d="M182 108h373v-108h-514v108l372 484h-355v108h496v-108z" />
    <glyph glyph-name="Zacute" unicode="&#x179;" horiz-adv-x="596" 
d="M413 917l-180 -147l-51 51l163 164zM182 108h373v-108h-514v108l372 484h-355v108h496v-108z" />
    <glyph glyph-name="Zcaron" unicode="&#x17d;" horiz-adv-x="596" 
d="M462 936l-164 -164l-163 164l61 61l102 -108l102 108zM182 108h373v-108h-514v108l372 484h-355v108h496v-108z" />
    <glyph glyph-name="Zdotaccent" unicode="&#x17b;" horiz-adv-x="596" 
d="M298 809c-38 0 -67 28 -67 65s29 65 67 65c39 0 67 -28 67 -65s-28 -65 -67 -65zM182 108h373v-108h-514v108l372 484h-355v108h496v-108z" />
    <glyph glyph-name="A.001" horiz-adv-x="748" 
d="M597 0l-71 188h-304l-71 -188h-120l271 700h144l271 -700h-120zM263 295h222l-111 293z" />
    <glyph glyph-name="a" unicode="a" horiz-adv-x="673" 
d="M494 550h113v-550h-113v92c-40 -63 -106 -104 -192 -104c-147 0 -254 119 -254 287s109 287 253 287c87 0 153 -43 193 -106v94zM326 96c96 0 169 73 169 179c0 105 -73 179 -169 179s-164 -74 -164 -179c0 -106 69 -179 164 -179z" />
    <glyph glyph-name="aacute" unicode="&#xe1;" horiz-adv-x="673" 
d="M458 772l-180 -147l-51 52l163 163zM494 550h113v-550h-113v92c-40 -63 -106 -104 -192 -104c-147 0 -254 119 -254 287s109 287 253 287c87 0 153 -43 193 -106v94zM326 96c96 0 169 73 169 179c0 105 -73 179 -169 179s-164 -74 -164 -179c0 -106 69 -179 164 -179z
" />
    <glyph glyph-name="abreve" unicode="&#x103;" horiz-adv-x="673" 
d="M343 633c-88 0 -164 58 -164 155v23h90v-19c0 -45 29 -73 74 -73c44 0 73 28 73 73v19h90v-23c0 -97 -76 -155 -163 -155zM494 550h113v-550h-113v92c-40 -63 -106 -104 -192 -104c-147 0 -254 119 -254 287s109 287 253 287c87 0 153 -43 193 -106v94zM326 96
c96 0 169 73 169 179c0 105 -73 179 -169 179s-164 -74 -164 -179c0 -106 69 -179 164 -179z" />
    <glyph glyph-name="acircumflex" unicode="&#xe2;" horiz-adv-x="673" 
d="M342 734l-102 -109l-61 61l163 164l164 -164l-62 -61zM494 550h113v-550h-113v92c-40 -63 -106 -104 -192 -104c-147 0 -254 119 -254 287s109 287 253 287c87 0 153 -43 193 -106v94zM326 96c96 0 169 73 169 179c0 105 -73 179 -169 179s-164 -74 -164 -179
c0 -106 69 -179 164 -179z" />
    <glyph glyph-name="adieresis" unicode="&#xe4;" horiz-adv-x="673" 
d="M229 664c-38 0 -67 27 -67 65c0 37 29 64 67 64c39 0 67 -27 67 -64c0 -38 -28 -65 -67 -65zM456 664c-39 0 -68 27 -68 65c0 37 29 64 68 64s68 -27 68 -64c0 -38 -29 -65 -68 -65zM494 550h113v-550h-113v92c-40 -63 -106 -104 -192 -104c-147 0 -254 119 -254 287
s109 287 253 287c87 0 153 -43 193 -106v94zM326 96c96 0 169 73 169 179c0 105 -73 179 -169 179s-164 -74 -164 -179c0 -106 69 -179 164 -179z" />
    <glyph glyph-name="agrave" unicode="&#xe0;" horiz-adv-x="673" 
d="M458 675l-52 -51l-179 147l67 68zM494 550h113v-550h-113v92c-40 -63 -106 -104 -192 -104c-147 0 -254 119 -254 287s109 287 253 287c87 0 153 -43 193 -106v94zM326 96c96 0 169 73 169 179c0 105 -73 179 -169 179s-164 -74 -164 -179c0 -106 69 -179 164 -179z" />
    <glyph glyph-name="amacron" unicode="&#x101;" horiz-adv-x="673" 
d="M468 770v-83h-250v83h250zM494 550h113v-550h-113v92c-40 -63 -106 -104 -192 -104c-147 0 -254 119 -254 287s109 287 253 287c87 0 153 -43 193 -106v94zM326 96c96 0 169 73 169 179c0 105 -73 179 -169 179s-164 -74 -164 -179c0 -106 69 -179 164 -179z" />
    <glyph glyph-name="aogonek" unicode="&#x105;" horiz-adv-x="673" 
d="M494 550h113v-550h-1c-70 -77 -102 -113 -102 -152c0 -32 21 -46 59 -46c18 0 35 3 43 5v-65c-8 -1 -39 -4 -61 -4c-75 0 -129 28 -129 96c0 60 45 104 113 166h-35v92c-40 -63 -106 -104 -192 -104c-147 0 -254 119 -254 287s109 287 253 287c87 0 153 -43 193 -106v94z
M326 96c96 0 169 73 169 179c0 105 -73 179 -169 179s-164 -74 -164 -179c0 -106 69 -179 164 -179z" />
    <glyph glyph-name="aring" unicode="&#xe5;" horiz-adv-x="673" 
d="M342 625c-69 0 -125 57 -125 126c0 70 55 126 125 126s127 -56 126 -126c1 -69 -57 -126 -126 -126zM342 811c-32 0 -59 -26 -58 -60c-1 -35 26 -60 58 -60c33 0 59 25 59 60c0 34 -26 60 -59 60zM494 550h113v-550h-113v92c-40 -63 -106 -104 -192 -104
c-147 0 -254 119 -254 287s109 287 253 287c87 0 153 -43 193 -106v94zM326 96c96 0 169 73 169 179c0 105 -73 179 -169 179s-164 -74 -164 -179c0 -106 69 -179 164 -179z" />
    <glyph glyph-name="atilde" unicode="&#xe3;" horiz-adv-x="673" 
d="M274 713c-25 0 -37 -22 -37 -63h-70c0 111 42 151 103 151c33 0 50 -12 81 -38c22 -18 39 -33 60 -33c25 0 38 22 38 64h70c0 -112 -43 -152 -104 -152c-32 0 -50 12 -81 38c-21 18 -38 33 -60 33zM494 550h113v-550h-113v92c-40 -63 -106 -104 -192 -104
c-147 0 -254 119 -254 287s109 287 253 287c87 0 153 -43 193 -106v94zM326 96c96 0 169 73 169 179c0 105 -73 179 -169 179s-164 -74 -164 -179c0 -106 69 -179 164 -179z" />
    <glyph glyph-name="ae" unicode="&#xe6;" horiz-adv-x="1101" 
d="M779 562c177 0 289 -137 278 -318h-447c9 -101 80 -157 172 -157c66 0 121 28 147 82h117c-43 -123 -148 -181 -265 -181c-77 0 -143 25 -192 68v-57h-95v91c-40 -62 -106 -103 -192 -103c-146 0 -254 120 -254 288s109 287 254 287c86 0 152 -43 193 -107v95h95l-1 -56
c49 42 115 68 190 68zM779 464c-86 0 -144 -54 -163 -128h320c-17 75 -74 128 -157 128zM326 96c96 0 169 72 169 179c0 105 -73 179 -169 179c-95 0 -164 -74 -164 -179c0 -106 69 -179 164 -179z" />
    <glyph glyph-name="b" unicode="b" horiz-adv-x="673" 
d="M372 562c144 0 253 -119 253 -287s-107 -287 -254 -287c-86 0 -152 42 -192 104v-92h-113v770h113v-314c40 63 106 106 193 106zM347 96c95 0 164 73 164 179c0 105 -68 179 -164 179s-169 -74 -169 -179c0 -106 73 -179 169 -179z" />
    <glyph glyph-name="c" unicode="c" horiz-adv-x="642" 
d="M333 -12c-163 0 -285 123 -285 287s122 287 286 287c130 0 245 -79 270 -212h-117c-21 69 -82 107 -153 107c-102 0 -172 -76 -172 -182c0 -107 72 -182 171 -182c72 0 133 40 154 108h117c-26 -136 -142 -213 -271 -213z" />
    <glyph glyph-name="cacute" unicode="&#x107;" horiz-adv-x="642" 
d="M371 840l68 -68l-180 -147l-51 52zM333 -12c-163 0 -285 123 -285 287s122 287 286 287c130 0 245 -79 270 -212h-117c-21 69 -82 107 -153 107c-102 0 -172 -76 -172 -182c0 -107 72 -182 171 -182c72 0 133 40 154 108h117c-26 -136 -142 -213 -271 -213z" />
    <glyph glyph-name="ccaron" unicode="&#x10d;" horiz-adv-x="642" 
d="M487 789l-164 -164l-163 164l61 61l102 -108l102 108zM333 -12c-163 0 -285 123 -285 287s122 287 286 287c130 0 245 -79 270 -212h-117c-21 69 -82 107 -153 107c-102 0 -172 -76 -172 -182c0 -107 72 -182 171 -182c72 0 133 40 154 108h117
c-26 -136 -142 -213 -271 -213z" />
    <glyph glyph-name="ccedilla" unicode="&#xe7;" horiz-adv-x="642" 
d="M333 93c72 0 133 40 154 108h117c-24 -127 -127 -202 -245 -212l-35 -68c48 -9 92 -36 92 -90c0 -63 -59 -93 -145 -93c-24 0 -51 3 -59 4v58c8 -1 26 -4 46 -4c42 0 70 13 70 41c0 25 -22 44 -91 50l46 105c-138 23 -235 137 -235 283c0 164 122 287 286 287
c130 0 245 -79 270 -212h-117c-21 69 -82 107 -153 107c-102 0 -172 -76 -172 -182c0 -107 72 -182 171 -182z" />
    <glyph glyph-name="d" unicode="d" horiz-adv-x="679" 
d="M501 770h113v-770h-113v92c-41 -62 -107 -104 -193 -104c-147 0 -254 119 -254 287s109 287 253 287c87 0 153 -43 194 -106v314zM332 96c96 0 169 73 169 179c0 105 -73 179 -169 179s-164 -74 -164 -179c0 -106 69 -179 164 -179z" />
    <glyph glyph-name="eth" unicode="&#xf0;" horiz-adv-x="661" 
d="M614 690l-74 -64c47 -69 74 -167 74 -302c-2 -231 -134 -336 -287 -336c-157 0 -279 113 -279 284c0 160 108 265 248 265c82 0 159 -37 200 -110c-24 195 -141 248 -355 248v107c128 0 238 -19 320 -77l79 68zM331 86c96 0 168 70 168 180c0 106 -80 174 -173 174
c-95 0 -165 -69 -165 -174c0 -110 75 -180 170 -180z" />
    <glyph glyph-name="dcaron" unicode="&#x10f;" horiz-adv-x="679" 
d="M800 733c0 -18 -7 -42 -54 -133h-64l46 87c-26 4 -43 21 -43 46c0 33 28 53 57 53c28 0 57 -18 58 -53zM501 456v314h113v-770h-113v92c-41 -62 -107 -104 -193 -104c-147 0 -254 119 -254 287s109 287 253 287c87 0 153 -43 194 -106zM332 96c96 0 169 73 169 179
c0 105 -73 179 -169 179s-164 -74 -164 -179c0 -106 69 -179 164 -179z" />
    <glyph glyph-name="dcroat" unicode="&#x111;" horiz-adv-x="679" 
d="M663 718v-108h-49v-610h-113v92c-41 -62 -107 -104 -193 -104c-147 0 -254 119 -254 287s109 287 253 287c87 0 153 -43 194 -106v154h-137v108h137v52h113v-52h49zM332 96c96 0 169 73 169 179c0 105 -73 179 -169 179s-164 -74 -164 -179c0 -106 69 -179 164 -179z" />
    <glyph glyph-name="e" unicode="e" horiz-adv-x="654" 
d="M332 562c177 0 289 -137 278 -318h-447c9 -101 80 -157 172 -157c66 0 121 28 147 82h117c-43 -123 -148 -181 -265 -181c-167 0 -286 120 -286 286s118 288 284 288zM332 464c-86 0 -144 -54 -163 -128h320c-17 75 -74 128 -157 128z" />
    <glyph glyph-name="eacute" unicode="&#xe9;" horiz-adv-x="654" 
d="M442 772l-180 -147l-51 52l163 163zM332 562c177 0 289 -137 278 -318h-447c9 -101 80 -157 172 -157c66 0 121 28 147 82h117c-43 -123 -148 -181 -265 -181c-167 0 -286 120 -286 286s118 288 284 288zM332 464c-86 0 -144 -54 -163 -128h320c-17 75 -74 128 -157 128z
" />
    <glyph glyph-name="ecaron" unicode="&#x11b;" horiz-adv-x="654" 
d="M490 789l-164 -164l-163 164l61 61l102 -108l102 108zM332 562c177 0 289 -137 278 -318h-447c9 -101 80 -157 172 -157c66 0 121 28 147 82h117c-43 -123 -148 -181 -265 -181c-167 0 -286 120 -286 286s118 288 284 288zM332 464c-86 0 -144 -54 -163 -128h320
c-17 75 -74 128 -157 128z" />
    <glyph glyph-name="ecircumflex" unicode="&#xea;" horiz-adv-x="654" 
d="M326 734l-102 -109l-61 61l163 164l164 -164l-62 -61zM332 562c177 0 289 -137 278 -318h-447c9 -101 80 -157 172 -157c66 0 121 28 147 82h117c-43 -123 -148 -181 -265 -181c-167 0 -286 120 -286 286s118 288 284 288zM332 464c-86 0 -144 -54 -163 -128h320
c-17 75 -74 128 -157 128z" />
    <glyph glyph-name="edieresis" unicode="&#xeb;" horiz-adv-x="654" 
d="M212 664c-38 0 -67 27 -67 65c0 37 29 64 67 64c39 0 67 -27 67 -64c0 -38 -28 -65 -67 -65zM439 664c-39 0 -68 27 -68 65c0 37 29 64 68 64s68 -27 68 -64c0 -38 -29 -65 -68 -65zM332 562c177 0 289 -137 278 -318h-447c9 -101 80 -157 172 -157c66 0 121 28 147 82
h117c-43 -123 -148 -181 -265 -181c-167 0 -286 120 -286 286s118 288 284 288zM332 464c-86 0 -144 -54 -163 -128h320c-17 75 -74 128 -157 128z" />
    <glyph glyph-name="edotaccent" unicode="&#x117;" horiz-adv-x="654" 
d="M326 658c-41 0 -73 30 -73 71c0 40 32 69 73 69c43 0 74 -29 74 -69c0 -41 -31 -71 -74 -71zM332 562c177 0 289 -137 278 -318h-447c9 -101 80 -157 172 -157c66 0 121 28 147 82h117c-43 -123 -148 -181 -265 -181c-167 0 -286 120 -286 286s118 288 284 288zM332 464
c-86 0 -144 -54 -163 -128h320c-17 75 -74 128 -157 128z" />
    <glyph glyph-name="egrave" unicode="&#xe8;" horiz-adv-x="654" 
d="M442 675l-52 -51l-179 147l67 68zM332 562c177 0 289 -137 278 -318h-447c9 -101 80 -157 172 -157c66 0 121 28 147 82h117c-43 -123 -148 -181 -265 -181c-167 0 -286 120 -286 286s118 288 284 288zM332 464c-86 0 -144 -54 -163 -128h320c-17 75 -74 128 -157 128z
" />
    <glyph glyph-name="emacron" unicode="&#x113;" horiz-adv-x="654" 
d="M451 770v-83h-250v83h250zM332 562c177 0 289 -137 278 -318h-447c9 -101 80 -157 172 -157c66 0 121 28 147 82h117c-43 -123 -148 -181 -265 -181c-167 0 -286 120 -286 286s118 288 284 288zM332 464c-86 0 -144 -54 -163 -128h320c-17 75 -74 128 -157 128z" />
    <glyph glyph-name="eogonek" unicode="&#x119;" horiz-adv-x="654" 
d="M332 562c177 0 289 -137 278 -318h-447c9 -101 80 -157 172 -157c66 0 121 28 147 82h117c-32 -92 -98 -147 -178 -169h3c-70 -77 -102 -113 -102 -152c0 -32 21 -46 59 -46c18 0 35 3 43 5v-65c-8 -1 -39 -4 -61 -4c-75 0 -129 28 -129 96c0 57 40 98 100 155v-1
c-167 0 -286 120 -286 286s118 288 284 288zM332 464c-86 0 -144 -54 -163 -128h320c-17 75 -74 128 -157 128z" />
    <glyph glyph-name="f" unicode="f" horiz-adv-x="482" 
d="M353 682c-79 0 -114 -45 -114 -129v-3h203v-106h-203v-444h-113v444h-102v106h102v8c0 150 96 224 214 224c42 0 90 -9 124 -24l-20 -93l-16 5c-26 8 -52 12 -75 12z" />
    <glyph glyph-name="g" unicode="g" horiz-adv-x="673" 
d="M494 550h113v-543c0 -164 -103 -269 -266 -269c-131 0 -250 68 -274 205h117c19 -71 80 -104 154 -104c101 0 156 57 156 164v94c-41 -61 -107 -103 -192 -103c-147 0 -254 119 -254 284s109 284 254 284c85 0 152 -43 192 -106v94zM326 102c96 0 169 73 169 176
c0 102 -73 176 -169 176s-164 -74 -164 -176c0 -103 69 -176 164 -176z" />
    <glyph glyph-name="gcommaaccent" unicode="&#x123;" horiz-adv-x="673" 
d="M334 625c-28 0 -57 19 -57 53c-1 18 7 42 53 134h64l-46 -87c26 -4 44 -21 44 -47c0 -33 -28 -53 -58 -53zM494 550h113v-543c0 -164 -103 -269 -266 -269c-131 0 -250 68 -274 205h117c19 -71 80 -104 154 -104c101 0 156 57 156 164v94c-41 -61 -107 -103 -192 -103
c-147 0 -254 119 -254 284s109 284 254 284c85 0 152 -43 192 -106v94zM326 102c96 0 169 73 169 176c0 102 -73 176 -169 176s-164 -74 -164 -176c0 -103 69 -176 164 -176z" />
    <glyph glyph-name="h" unicode="h" horiz-adv-x="626" 
d="M368 562c123 0 198 -81 198 -215v-347h-113v324c0 85 -38 130 -121 130c-96 0 -148 -63 -148 -169v-285h-113v770h113v-310c39 64 99 102 184 102z" />
    <glyph glyph-name="i" unicode="i" horiz-adv-x="244" 
d="M122 798c43 0 74 -29 74 -69c0 -41 -31 -71 -74 -71c-41 0 -73 30 -73 71c0 40 32 69 73 69zM66 0v550h113v-550h-113z" />
    <glyph glyph-name="dotlessi" unicode="&#x131;" horiz-adv-x="244" 
d="M66 0v550h113v-550h-113z" />
    <glyph glyph-name="iacute" unicode="&#xed;" horiz-adv-x="244" 
d="M169 840l68 -68l-180 -147l-51 52zM66 0v550h113v-550h-113z" />
    <glyph glyph-name="icircumflex" unicode="&#xee;" horiz-adv-x="244" 
d="M286 686l-62 -61l-102 109l-102 -109l-61 61l163 164zM66 0v550h113v-550h-113z" />
    <glyph glyph-name="idieresis" unicode="&#xef;" horiz-adv-x="244" 
d="M8 793c39 0 67 -27 67 -64c0 -38 -28 -65 -67 -65c-38 0 -67 27 -67 65c0 37 29 64 67 64zM235 793c39 0 68 -27 68 -64c0 -38 -29 -65 -68 -65s-68 27 -68 65c0 37 29 64 68 64zM66 0v550h113v-550h-113z" />
    <glyph glyph-name="igrave" unicode="&#xec;" horiz-adv-x="244" 
d="M73 839l164 -164l-52 -51l-179 147zM66 0v550h113v-550h-113z" />
    <glyph glyph-name="imacron" unicode="&#x12b;" horiz-adv-x="244" 
d="M247 770v-83h-250v83h250zM66 0v550h113v-550h-113z" />
    <glyph glyph-name="iogonek" unicode="&#x12f;" horiz-adv-x="244" 
d="M122 658c-41 0 -73 30 -73 71c0 40 32 69 73 69c43 0 74 -29 74 -69c0 -41 -31 -71 -74 -71zM66 0v550h113v-550h-1c-70 -77 -102 -113 -102 -152c0 -32 21 -46 59 -46c18 0 35 3 43 5v-65c-8 -1 -39 -4 -61 -4c-75 0 -129 28 -129 96c0 60 45 104 113 166h-35z" />
    <glyph glyph-name="j" unicode="j" horiz-adv-x="244" 
d="M122 798c43 0 74 -29 74 -69c0 -41 -31 -71 -74 -71c-41 0 -73 30 -73 71c0 40 32 69 73 69zM66 -250v800h113v-800h-113z" />
    <glyph glyph-name="uni0237" unicode="&#x237;" horiz-adv-x="244" 
d="M66 -250v800h113v-800h-113z" />
    <glyph glyph-name="k" unicode="k" horiz-adv-x="613" 
d="M589 0h-146l-259 254v-254h-113v770h113v-458l238 238h145l-269 -261z" />
    <glyph glyph-name="kcommaaccent" unicode="&#x137;" horiz-adv-x="613" 
d="M298 289l291 -289h-146l-259 254v-254h-113v770h113v-458l238 238h145zM310 -64c28 0 56 -18 57 -53c1 -18 -7 -42 -53 -133h-65l46 87c-26 4 -43 21 -43 46c0 33 28 53 58 53z" />
    <glyph glyph-name="l" unicode="l" horiz-adv-x="244" 
d="M67 0v770h114v-770h-114z" />
    <glyph glyph-name="lacute" unicode="&#x13a;" horiz-adv-x="244" 
d="M168 1055l68 -68l-180 -147l-51 51zM67 0v770h114v-770h-114z" />
    <glyph glyph-name="lcaron" unicode="&#x13e;" horiz-adv-x="241" 
d="M367 733c1 -18 -7 -42 -53 -133h-65l47 87c-27 4 -44 21 -44 46c0 33 28 53 58 53c28 0 56 -18 57 -53zM67 0v770h114v-770h-114z" />
    <glyph glyph-name="lcommaaccent" unicode="&#x13c;" horiz-adv-x="244" 
d="M181 770v-770h-114v770h114zM182 -117c1 -18 -7 -42 -53 -133h-65l46 87c-26 4 -43 21 -43 46c0 33 28 53 58 53c28 0 56 -18 57 -53z" />
    <glyph glyph-name="lslash" unicode="&#x142;" horiz-adv-x="241" 
d="M261 422v-108l-80 -20v-294h-114v266l-84 -21v108l84 21v396h114v-368z" />
    <glyph glyph-name="m" unicode="m" horiz-adv-x="953" 
d="M706 562c116 0 186 -78 186 -209v-353h-113v329c0 82 -33 125 -109 125c-89 0 -135 -69 -135 -169l1 -285h-114v329c0 82 -33 125 -109 125c-89 0 -134 -69 -134 -169v-285h-113v550h113v-88c38 63 92 100 171 100c84 0 143 -41 170 -115c37 71 99 115 186 115z" />
    <glyph glyph-name="n" unicode="n" horiz-adv-x="622" 
d="M363 562c124 0 198 -81 198 -215v-347h-113v324c0 85 -37 130 -120 130c-97 0 -149 -63 -149 -169v-285h-113v550h113v-91c39 64 98 103 184 103z" />
    <glyph glyph-name="nacute" unicode="&#x144;" horiz-adv-x="622" 
d="M426 772l-180 -147l-51 52l163 163zM363 562c124 0 198 -81 198 -215v-347h-113v324c0 85 -37 130 -120 130c-97 0 -149 -63 -149 -169v-285h-113v550h113v-91c39 64 98 103 184 103z" />
    <glyph glyph-name="ncaron" unicode="&#x148;" horiz-adv-x="622" 
d="M475 789l-164 -164l-163 164l61 61l102 -108l102 108zM363 562c124 0 198 -81 198 -215v-347h-113v324c0 85 -37 130 -120 130c-97 0 -149 -63 -149 -169v-285h-113v550h113v-91c39 64 98 103 184 103z" />
    <glyph glyph-name="ncommaaccent" unicode="&#x146;" horiz-adv-x="622" 
d="M363 562c124 0 198 -81 198 -215v-347h-113v324c0 85 -37 130 -120 130c-97 0 -149 -63 -149 -169v-285h-113v550h113v-91c39 64 98 103 184 103zM315 -64c28 0 56 -18 57 -53c1 -18 -7 -42 -53 -133h-65l46 87c-26 4 -43 21 -43 46c0 33 28 53 58 53z" />
    <glyph glyph-name="eng" unicode="&#x14b;" horiz-adv-x="622" 
d="M363 562c124 0 198 -81 198 -215v-347v-39c0 -152 -88 -223 -202 -223c-62 0 -126 22 -156 40l20 92c43 -15 82 -27 117 -27c71 0 108 44 108 124v182v175c0 85 -37 130 -120 130c-97 0 -149 -63 -149 -169v-285h-113v550h113v-91c39 64 98 103 184 103z" />
    <glyph glyph-name="ntilde" unicode="&#xf1;" horiz-adv-x="622" 
d="M242 713c-25 0 -37 -22 -37 -63h-70c0 111 42 151 103 151c33 0 50 -12 81 -38c22 -18 39 -33 60 -33c25 0 38 22 38 64h70c0 -112 -43 -152 -104 -152c-32 0 -50 12 -81 38c-21 18 -38 33 -60 33zM363 562c124 0 198 -81 198 -215v-347h-113v324c0 85 -37 130 -120 130
c-97 0 -149 -63 -149 -169v-285h-113v550h113v-91c39 64 98 103 184 103z" />
    <glyph glyph-name="o" unicode="o" horiz-adv-x="665" 
d="M333 562c158 0 285 -121 285 -287c0 -165 -125 -287 -285 -287c-159 0 -285 123 -285 287c0 166 128 287 285 287zM333 454c-95 0 -171 -73 -171 -179s75 -179 171 -179s171 73 171 179s-76 179 -171 179z" />
    <glyph glyph-name="oacute" unicode="&#xf3;" horiz-adv-x="665" 
d="M380 840l68 -68l-180 -147l-51 52zM333 562c158 0 285 -121 285 -287c0 -165 -125 -287 -285 -287c-159 0 -285 123 -285 287c0 166 128 287 285 287zM333 454c-95 0 -171 -73 -171 -179s75 -179 171 -179s171 73 171 179s-76 179 -171 179z" />
    <glyph glyph-name="ocircumflex" unicode="&#xf4;" horiz-adv-x="665" 
d="M496 686l-62 -61l-102 109l-102 -109l-61 61l163 164zM333 562c158 0 285 -121 285 -287c0 -165 -125 -287 -285 -287c-159 0 -285 123 -285 287c0 166 128 287 285 287zM333 454c-95 0 -171 -73 -171 -179s75 -179 171 -179s171 73 171 179s-76 179 -171 179z" />
    <glyph glyph-name="odieresis" unicode="&#xf6;" horiz-adv-x="665" 
d="M218 793c39 0 67 -27 67 -64c0 -38 -28 -65 -67 -65c-38 0 -67 27 -67 65c0 37 29 64 67 64zM445 793c39 0 68 -27 68 -64c0 -38 -29 -65 -68 -65s-68 27 -68 65c0 37 29 64 68 64zM333 562c158 0 285 -121 285 -287c0 -165 -125 -287 -285 -287
c-159 0 -285 123 -285 287c0 166 128 287 285 287zM333 454c-95 0 -171 -73 -171 -179s75 -179 171 -179s171 73 171 179s-76 179 -171 179z" />
    <glyph glyph-name="ograve" unicode="&#xf2;" horiz-adv-x="665" 
d="M284 839l164 -164l-52 -51l-179 147zM333 562c158 0 285 -121 285 -287c0 -165 -125 -287 -285 -287c-159 0 -285 123 -285 287c0 166 128 287 285 287zM333 454c-95 0 -171 -73 -171 -179s75 -179 171 -179s171 73 171 179s-76 179 -171 179z" />
    <glyph glyph-name="ohungarumlaut" unicode="&#x151;" horiz-adv-x="665" 
d="M280 848l70 -34l-118 -189l-51 25zM414 848l70 -34l-118 -189l-51 25zM333 562c158 0 285 -121 285 -287c0 -165 -125 -287 -285 -287c-159 0 -285 123 -285 287c0 166 128 287 285 287zM333 454c-95 0 -171 -73 -171 -179s75 -179 171 -179s171 73 171 179
s-76 179 -171 179z" />
    <glyph glyph-name="omacron" unicode="&#x14d;" horiz-adv-x="665" 
d="M457 770v-83h-250v83h250zM333 562c158 0 285 -121 285 -287c0 -165 -125 -287 -285 -287c-159 0 -285 123 -285 287c0 166 128 287 285 287zM333 454c-95 0 -171 -73 -171 -179s75 -179 171 -179s171 73 171 179s-76 179 -171 179z" />
    <glyph glyph-name="oslash" unicode="&#xf8;" horiz-adv-x="665" 
d="M527 487c56 -51 91 -125 91 -212c0 -165 -125 -287 -285 -287c-51 0 -98 13 -139 35l-16 -23h-85l45 63c-56 51 -90 126 -90 212c0 166 128 287 285 287c49 0 96 -13 137 -34l16 22h86zM162 275c0 -48 16 -90 41 -120l203 283c-22 10 -47 16 -73 16
c-95 0 -171 -73 -171 -179zM333 96c96 0 171 73 171 179c0 48 -16 90 -43 121l-203 -284c23 -10 48 -16 75 -16z" />
    <glyph glyph-name="otilde" unicode="&#xf5;" horiz-adv-x="665" 
d="M438 794h70c0 -112 -43 -152 -104 -152c-32 0 -50 12 -81 38c-21 18 -38 33 -60 33c-25 0 -37 -22 -37 -63h-70c0 111 42 151 103 151c33 0 50 -12 81 -38c22 -18 39 -33 60 -33c25 0 38 22 38 64zM333 562c158 0 285 -121 285 -287c0 -165 -125 -287 -285 -287
c-159 0 -285 123 -285 287c0 166 128 287 285 287zM333 454c-95 0 -171 -73 -171 -179s75 -179 171 -179s171 73 171 179s-76 179 -171 179z" />
    <glyph glyph-name="oe" unicode="&#x153;" horiz-adv-x="1110" 
d="M788 562c176 0 288 -137 278 -318h-447c9 -101 80 -157 172 -157c65 0 121 28 147 82h117c-44 -123 -149 -181 -265 -181c-100 0 -183 43 -233 112c-49 -69 -130 -113 -224 -113c-159 0 -285 123 -285 288s128 287 285 287c93 0 175 -44 224 -114c50 70 132 114 231 114z
M787 464c-86 0 -144 -54 -162 -128h320c-17 75 -74 128 -158 128zM333 96c96 0 171 72 171 179c0 105 -76 179 -171 179s-171 -74 -171 -179c0 -106 75 -179 171 -179z" />
    <glyph glyph-name="p" unicode="p" horiz-adv-x="678" 
d="M377 562c144 0 253 -119 253 -287s-107 -287 -254 -287c-86 0 -152 42 -192 104v-342h-113v800h113v-94c40 63 106 106 193 106zM352 96c95 0 164 73 164 179c0 105 -68 179 -164 179s-169 -74 -169 -179c0 -106 73 -179 169 -179z" />
    <glyph glyph-name="thorn" unicode="&#xfe;" horiz-adv-x="678" 
d="M377 562c144 0 253 -119 253 -287s-107 -287 -254 -287c-86 0 -152 42 -192 104v-342h-113v1020h113v-314c40 63 106 106 193 106zM352 96c95 0 164 73 164 179c0 105 -68 179 -164 179s-169 -74 -169 -179c0 -106 73 -179 169 -179z" />
    <glyph glyph-name="q" unicode="q" horiz-adv-x="673" 
d="M494 550h113v-800h-113v342c-40 -62 -106 -104 -192 -104c-147 0 -254 119 -254 287s109 287 253 287c87 0 153 -43 193 -106v94zM326 96c96 0 169 73 169 179c0 105 -73 179 -169 179s-164 -74 -164 -179c0 -106 69 -179 164 -179z" />
    <glyph glyph-name="r" unicode="r" horiz-adv-x="419" 
d="M362 562c14 0 25 -1 33 -3v-115c-10 1 -19 2 -34 2c-103 0 -182 -58 -182 -194v-252h-113v550h113v-109c33 77 96 121 183 121z" />
    <glyph glyph-name="racute" unicode="&#x155;" horiz-adv-x="419" 
d="M325 772l-180 -147l-51 52l163 163zM362 562c14 0 25 -1 33 -3v-115c-10 1 -19 2 -34 2c-103 0 -182 -58 -182 -194v-252h-113v550h113v-109c33 77 96 121 183 121z" />
    <glyph glyph-name="rcaron" unicode="&#x159;" horiz-adv-x="419" 
d="M374 789l-164 -164l-163 164l61 61l102 -108l102 108zM362 562c14 0 25 -1 33 -3v-115c-10 1 -19 2 -34 2c-103 0 -182 -58 -182 -194v-252h-113v550h113v-109c33 77 96 121 183 121z" />
    <glyph glyph-name="rcommaaccent" unicode="&#x157;" horiz-adv-x="419" 
d="M362 562c14 0 25 -1 33 -3v-115c-10 1 -19 2 -34 2c-103 0 -182 -58 -182 -194v-252h-113v550h113v-109c33 77 96 121 183 121zM214 -64c28 0 56 -18 57 -53c1 -18 -7 -42 -53 -133h-65l46 87c-26 4 -43 21 -43 46c0 33 28 53 58 53z" />
    <glyph glyph-name="s" unicode="s" horiz-adv-x="584" 
d="M309 -12c-145 0 -249 70 -270 189h115c17 -61 62 -89 157 -89c73 0 118 22 118 63c0 46 -52 53 -144 75c-154 38 -219 69 -219 161c0 111 94 175 232 175c141 0 220 -67 240 -167h-114c-16 45 -58 67 -128 67c-73 0 -116 -25 -116 -63c0 -35 34 -44 130 -67
c149 -35 235 -61 235 -168c0 -118 -106 -176 -236 -176z" />
    <glyph glyph-name="sacute" unicode="&#x15b;" horiz-adv-x="584" 
d="M340 840l68 -68l-180 -147l-51 52zM309 -12c-145 0 -249 70 -270 189h115c17 -61 62 -89 157 -89c73 0 118 22 118 63c0 46 -52 53 -144 75c-154 38 -219 69 -219 161c0 111 94 175 232 175c141 0 220 -67 240 -167h-114c-16 45 -58 67 -128 67c-73 0 -116 -25 -116 -63
c0 -35 34 -44 130 -67c149 -35 235 -61 235 -168c0 -118 -106 -176 -236 -176z" />
    <glyph glyph-name="scaron" unicode="&#x161;" horiz-adv-x="584" 
d="M457 789l-164 -164l-163 164l61 61l102 -108l102 108zM309 -12c-145 0 -249 70 -270 189h115c17 -61 62 -89 157 -89c73 0 118 22 118 63c0 46 -52 53 -144 75c-154 38 -219 69 -219 161c0 111 94 175 232 175c141 0 220 -67 240 -167h-114c-16 45 -58 67 -128 67
c-73 0 -116 -25 -116 -63c0 -35 34 -44 130 -67c149 -35 235 -61 235 -168c0 -118 -106 -176 -236 -176z" />
    <glyph glyph-name="scedilla" unicode="&#x15f;" horiz-adv-x="584" 
d="M545 164c0 -112 -96 -170 -217 -175l-34 -68c48 -9 92 -36 92 -90c0 -63 -59 -93 -145 -93c-24 0 -51 3 -59 4v58c8 -1 26 -4 46 -4c42 0 70 13 70 41c0 25 -22 44 -91 50l46 105c-116 16 -196 82 -214 185h115c17 -61 62 -89 157 -89c73 0 118 22 118 63
c0 46 -52 53 -144 75c-154 38 -219 69 -219 161c0 111 94 175 232 175c141 0 220 -67 240 -167h-114c-16 45 -58 67 -128 67c-73 0 -116 -25 -116 -63c0 -35 34 -44 130 -67c149 -35 235 -61 235 -168z" />
    <glyph glyph-name="germandbls" unicode="&#xdf;" horiz-adv-x="632" 
d="M461 403c85 -25 132 -102 132 -197c0 -141 -101 -218 -226 -218c-40 0 -103 8 -141 23l23 104c30 -11 68 -19 99 -19c79 0 131 42 131 118c0 71 -46 118 -135 118h-84v108h69c70 0 116 44 116 113c0 64 -41 121 -131 121c-87 0 -135 -53 -135 -144v-530h-113v532
c0 155 96 250 248 250c155 0 245 -99 245 -217c0 -76 -38 -133 -98 -162z" />
    <glyph glyph-name="t" unicode="t" horiz-adv-x="521" 
d="M464 120l20 -92c-30 -18 -94 -40 -157 -40c-113 0 -201 71 -201 223v233h-102v106h102v125l113 25v-150h226v-106h-226v-227c0 -80 37 -124 108 -124c35 0 74 12 117 27z" />
    <glyph glyph-name="tbar" unicode="&#x167;" horiz-adv-x="521" 
d="M464 120l20 -92c-30 -18 -94 -40 -157 -40c-113 0 -201 71 -201 223v10h-102v108h102v115h-102v106h102v125l113 25v-150h226v-106h-226v-115h84v-108h-84v-4c0 -80 37 -124 108 -124c35 0 74 12 117 27z" />
    <glyph glyph-name="tcaron" unicode="&#x165;" horiz-adv-x="528" 
d="M394 600h-64l46 87c-26 4 -43 21 -43 46c0 33 28 53 57 53c28 0 57 -18 58 -53c0 -18 -7 -42 -54 -133zM464 120l20 -92c-30 -18 -94 -40 -157 -40c-113 0 -201 71 -201 223v233h-102v106h102v125l113 25v-150h226v-106h-226v-227c0 -80 37 -124 108 -124
c35 0 74 12 117 27z" />
    <glyph glyph-name="uni0163" unicode="&#x163;" horiz-adv-x="521" 
d="M329 -79c48 -9 92 -36 92 -90c0 -63 -59 -93 -145 -93c-24 0 -51 3 -59 4v58c8 -1 26 -4 46 -4c42 0 70 13 70 41c0 25 -22 44 -91 50l45 104c-93 16 -161 87 -161 220v233h-102v106h102v125l113 25v-150h226v-106h-226v-227c0 -80 37 -124 108 -124c35 0 74 12 117 27
l20 -92c-24 -15 -70 -31 -120 -38z" />
    <glyph glyph-name="u" unicode="u" horiz-adv-x="616" 
d="M439 550h113v-550h-113v91c-39 -63 -98 -103 -183 -103c-122 0 -195 81 -195 215v347h113v-324c0 -85 36 -130 118 -130c94 0 147 63 147 169v285z" />
    <glyph glyph-name="uacute" unicode="&#xfa;" horiz-adv-x="616" 
d="M421 772l-180 -147l-51 52l163 163zM439 550h113v-550h-113v91c-39 -63 -98 -103 -183 -103c-122 0 -195 81 -195 215v347h113v-324c0 -85 36 -130 118 -130c94 0 147 63 147 169v285z" />
    <glyph glyph-name="ucircumflex" unicode="&#xfb;" horiz-adv-x="616" 
d="M306 734l-102 -109l-61 61l163 164l164 -164l-62 -61zM439 550h113v-550h-113v91c-39 -63 -98 -103 -183 -103c-122 0 -195 81 -195 215v347h113v-324c0 -85 36 -130 118 -130c94 0 147 63 147 169v285z" />
    <glyph glyph-name="udieresis" unicode="&#xfc;" horiz-adv-x="616" 
d="M192 664c-38 0 -67 27 -67 65c0 37 29 64 67 64c39 0 67 -27 67 -64c0 -38 -28 -65 -67 -65zM419 664c-39 0 -68 27 -68 65c0 37 29 64 68 64s68 -27 68 -64c0 -38 -29 -65 -68 -65zM439 550h113v-550h-113v91c-39 -63 -98 -103 -183 -103c-122 0 -195 81 -195 215v347
h113v-324c0 -85 36 -130 118 -130c94 0 147 63 147 169v285z" />
    <glyph glyph-name="ugrave" unicode="&#xf9;" horiz-adv-x="616" 
d="M421 675l-52 -51l-179 147l67 68zM439 550h113v-550h-113v91c-39 -63 -98 -103 -183 -103c-122 0 -195 81 -195 215v347h113v-324c0 -85 36 -130 118 -130c94 0 147 63 147 169v285z" />
    <glyph glyph-name="uhungarumlaut" unicode="&#x171;" horiz-adv-x="616" 
d="M323 814l-118 -189l-51 25l99 198zM339 625l-51 25l99 198l70 -34zM439 550h113v-550h-113v91c-39 -63 -98 -103 -183 -103c-122 0 -195 81 -195 215v347h113v-324c0 -85 36 -130 118 -130c94 0 147 63 147 169v285z" />
    <glyph glyph-name="umacron" unicode="&#x16b;" horiz-adv-x="616" 
d="M431 770v-83h-250v83h250zM439 550h113v-550h-113v91c-39 -63 -98 -103 -183 -103c-122 0 -195 81 -195 215v347h113v-324c0 -85 36 -130 118 -130c94 0 147 63 147 169v285z" />
    <glyph glyph-name="uogonek" unicode="&#x173;" horiz-adv-x="616" 
d="M439 550h113v-550h-1c-70 -77 -102 -113 -102 -152c0 -32 21 -46 59 -46c18 0 35 3 43 5v-65c-8 -1 -39 -4 -61 -4c-75 0 -129 28 -129 96c0 60 45 104 113 166h-35v91c-39 -63 -98 -103 -183 -103c-122 0 -195 81 -195 215v347h113v-324c0 -85 36 -130 118 -130
c94 0 147 63 147 169v285z" />
    <glyph glyph-name="uring" unicode="&#x16f;" horiz-adv-x="616" 
d="M306 625c-69 0 -125 57 -125 126c0 70 55 126 125 126s127 -56 126 -126c1 -69 -57 -126 -126 -126zM306 811c-32 0 -59 -26 -58 -60c-1 -35 26 -60 58 -60c33 0 59 25 59 60c0 34 -26 60 -59 60zM439 550h113v-550h-113v91c-39 -63 -98 -103 -183 -103
c-122 0 -195 81 -195 215v347h113v-324c0 -85 36 -130 118 -130c94 0 147 63 147 169v285z" />
    <glyph glyph-name="v" unicode="v" horiz-adv-x="581" 
d="M437 550h120l-198 -550h-137l-198 550h120l146 -432z" />
    <glyph glyph-name="w" unicode="w" horiz-adv-x="860" 
d="M723 550h113l-157 -550h-132l-53 185l-55 251h-18l-55 -251l-53 -185h-132l-157 550h112l49 -173l64 -258l64 258l49 173h136l48 -173l64 -256l65 256z" />
    <glyph glyph-name="wacute" unicode="&#x1e83;" horiz-adv-x="860" 
d="M545 772l-180 -147l-51 52l163 163zM723 550h113l-157 -550h-132l-53 185l-55 251h-18l-55 -251l-53 -185h-132l-157 550h112l49 -173l64 -258l64 258l49 173h136l48 -173l64 -256l65 256z" />
    <glyph glyph-name="wcircumflex" unicode="&#x175;" horiz-adv-x="860" 
d="M430 734l-102 -109l-61 61l163 164l164 -164l-62 -61zM723 550h113l-157 -550h-132l-53 185l-55 251h-18l-55 -251l-53 -185h-132l-157 550h112l49 -173l64 -258l64 258l49 173h136l48 -173l64 -256l65 256z" />
    <glyph glyph-name="wdieresis" unicode="&#x1e85;" horiz-adv-x="860" 
d="M316 664c-38 0 -67 27 -67 65c0 37 29 64 67 64c39 0 67 -27 67 -64c0 -38 -28 -65 -67 -65zM543 664c-39 0 -68 27 -68 65c0 37 29 64 68 64s68 -27 68 -64c0 -38 -29 -65 -68 -65zM723 550h113l-157 -550h-132l-53 185l-55 251h-18l-55 -251l-53 -185h-132l-157 550
h112l49 -173l64 -258l64 258l49 173h136l48 -173l64 -256l65 256z" />
    <glyph glyph-name="wgrave" unicode="&#x1e81;" horiz-adv-x="860" 
d="M545 675l-52 -51l-179 147l67 68zM723 550h113l-157 -550h-132l-53 185l-55 251h-18l-55 -251l-53 -185h-132l-157 550h112l49 -173l64 -258l64 258l49 173h136l48 -173l64 -256l65 256z" />
    <glyph glyph-name="x" unicode="x" horiz-adv-x="580" 
d="M556 0h-135l-133 197l-128 -197h-136l197 283l-186 267h135l122 -184l118 184h136l-186 -269z" />
    <glyph glyph-name="y" unicode="y" horiz-adv-x="605" 
d="M460 550h121l-364 -800h-121l145 320l-217 480h121l156 -358z" />
    <glyph glyph-name="yacute" unicode="&#xfd;" horiz-adv-x="605" 
d="M418 772l-180 -147l-51 52l163 163zM460 550h121l-364 -800h-121l145 320l-217 480h121l156 -358z" />
    <glyph glyph-name="ycircumflex" unicode="&#x177;" horiz-adv-x="605" 
d="M302 734l-102 -109l-61 61l163 164l164 -164l-62 -61zM460 550h121l-364 -800h-121l145 320l-217 480h121l156 -358z" />
    <glyph glyph-name="ydieresis" unicode="&#xff;" horiz-adv-x="605" 
d="M188 664c-38 0 -67 27 -67 65c0 37 29 64 67 64c39 0 67 -27 67 -64c0 -38 -28 -65 -67 -65zM415 664c-39 0 -68 27 -68 65c0 37 29 64 68 64s68 -27 68 -64c0 -38 -29 -65 -68 -65zM460 550h121l-364 -800h-121l145 320l-217 480h121l156 -358z" />
    <glyph glyph-name="ygrave" unicode="&#x1ef3;" horiz-adv-x="605" 
d="M418 675l-52 -51l-179 147l67 68zM460 550h121l-364 -800h-121l145 320l-217 480h121l156 -358z" />
    <glyph glyph-name="z" unicode="z" horiz-adv-x="542" 
d="M183 107h320v-107h-464v107l314 336h-296v107h441v-107z" />
    <glyph glyph-name="zacute" unicode="&#x17a;" horiz-adv-x="542" 
d="M386 772l-180 -147l-51 52l163 163zM183 107h320v-107h-464v107l314 336h-296v107h441v-107z" />
    <glyph glyph-name="zcaron" unicode="&#x17e;" horiz-adv-x="542" 
d="M435 789l-164 -164l-163 164l61 61l102 -108l102 108zM183 107h320v-107h-464v107l314 336h-296v107h441v-107z" />
    <glyph glyph-name="zdotaccent" unicode="&#x17c;" horiz-adv-x="542" 
d="M271 658c-41 0 -73 30 -73 71c0 40 32 69 73 69c43 0 74 -29 74 -69c0 -41 -31 -71 -74 -71zM183 107h320v-107h-464v107l314 336h-296v107h441v-107z" />
    <glyph glyph-name="uni0410" unicode="&#x410;" horiz-adv-x="748" 
d="M597 0l-71 188h-304l-71 -188h-120l271 700h144l271 -700h-120zM263 295h222l-111 293z" />
    <glyph glyph-name="uni0411" unicode="&#x411;" horiz-adv-x="655" 
d="M383 427c154 0 232 -78 232 -212c0 -133 -86 -215 -239 -215h-294v700h113h369v-108h-369v-165h188zM372 108c87 0 128 42 128 108c0 67 -35 107 -122 107h-183v-215h177z" />
    <glyph glyph-name="uni0412" unicode="&#x412;" horiz-adv-x="657" 
d="M500 374c79 -24 116 -91 116 -176c0 -123 -85 -198 -232 -198h-302v700h298c136 0 213 -65 213 -180c0 -71 -30 -117 -93 -146zM479 502c0 61 -32 90 -113 90h-171v-180h172c82 0 112 33 112 90zM381 108c92 0 121 39 121 99c0 64 -30 101 -122 101h-185v-200h186z" />
    <glyph glyph-name="uni0413" unicode="&#x413;" horiz-adv-x="545" 
d="M514 700v-108h-319v-592h-113v700h432z" />
    <glyph glyph-name="uni0490" unicode="&#x490;" horiz-adv-x="545" 
d="M514 770v-178h-319v-592h-113v700h319v70h113z" />
    <glyph glyph-name="uni0414" unicode="&#x414;" horiz-adv-x="817" 
d="M686 108h100v-251h-113v143h-529v-143h-113v251h99c21 17 33 51 44 116l77 476h435v-592zM285 214c-8 -48 -17 -82 -30 -106h318v484h-227z" />
    <glyph glyph-name="uni0415" unicode="&#x415;" horiz-adv-x="580" 
d="M539 592h-344v-181h319v-108h-319v-195h344v-108h-457v700h457v-108z" />
    <glyph glyph-name="uni0401" unicode="&#x401;" horiz-adv-x="580" 
d="M194 809c-38 0 -67 28 -67 65s29 65 67 65c39 0 67 -28 67 -65s-28 -65 -67 -65zM421 809c-39 0 -68 28 -68 65s29 65 68 65s68 -28 68 -65s-29 -65 -68 -65zM539 592h-344v-181h319v-108h-319v-195h344v-108h-457v700h457v-108z" />
    <glyph glyph-name="uni0416" unicode="&#x416;" horiz-adv-x="1017" 
d="M987 0h-141l-281 333v-333h-113v333l-281 -333h-140l299 359l-286 341h139l269 -318v318h113v-318l269 318h139l-286 -341z" />
    <glyph glyph-name="uni0417" unicode="&#x417;" horiz-adv-x="630" 
d="M473 368c73 -26 117 -87 117 -169c0 -130 -104 -211 -263 -211c-151 0 -270 72 -286 221h114c17 -82 79 -113 170 -113c101 0 150 44 150 113c0 59 -34 100 -137 100h-106v100h85c89 0 135 28 135 89c0 63 -48 106 -139 106c-80 0 -130 -26 -149 -104h-114
c20 146 126 212 266 212c148 0 251 -83 251 -200c0 -64 -35 -119 -94 -144z" />
    <glyph glyph-name="uni0418" unicode="&#x418;" horiz-adv-x="740" 
d="M530 700h133v-700h-113v293l11 248l-351 -541h-133v700h113v-293l-10 -247z" />
    <glyph glyph-name="uni0419" unicode="&#x419;" horiz-adv-x="740" 
d="M370 777c-88 0 -164 59 -164 156v22h90v-19c0 -44 29 -72 74 -72c44 0 73 28 73 72v19h90v-22c0 -97 -76 -156 -163 -156zM530 700h133v-700h-113v293l11 248l-351 -541h-133v700h113v-293l-10 -247z" />
    <glyph glyph-name="uni041A" unicode="&#x41a;" horiz-adv-x="665" 
d="M634 0h-143l-296 334v-334h-113v700h113v-320l283 320h142l-302 -341z" />
    <glyph glyph-name="uni041B" unicode="&#x41b;" horiz-adv-x="759" 
d="M240 700h437v-700h-113v592h-229l-61 -378c-27 -164 -87 -226 -181 -226c-18 0 -45 3 -62 6v102c11 -1 29 -3 40 -3c52 0 75 29 92 131z" />
    <glyph glyph-name="uni041C" unicode="&#x41c;" horiz-adv-x="827" 
d="M612 700h133v-700h-113v547l-216 -326h-11l-215 326v-547h-113v700h133l201 -302z" />
    <glyph glyph-name="uni041D" unicode="&#x41d;" horiz-adv-x="748" 
d="M554 700h113v-700h-113v306h-359v-306h-113v700h113v-286h359v286z" />
    <glyph glyph-name="uni041E" unicode="&#x41e;" horiz-adv-x="829" 
d="M415 712c205 0 362 -156 363 -362c-1 -206 -158 -362 -363 -362s-363 156 -363 362s158 362 363 362zM415 604c-142 0 -249 -108 -249 -254s107 -254 249 -254c141 0 248 108 248 254s-107 254 -248 254z" />
    <glyph glyph-name="uni041F" unicode="&#x41f;" horiz-adv-x="748" 
d="M667 700v-700h-113v592h-359v-592h-113v700h113h472z" />
    <glyph glyph-name="uni0420" unicode="&#x420;" horiz-adv-x="666" 
d="M369 700c153 0 246 -92 246 -230c0 -137 -93 -233 -246 -233h-174v-237h-113v700h287zM365 345c92 0 135 53 135 124s-43 123 -135 123h-170v-247h170z" />
    <glyph glyph-name="uni0421" unicode="&#x421;" horiz-adv-x="792" 
d="M416 -12c-208 0 -361 155 -361 362s153 362 361 362c162 0 291 -98 335 -243h-121c-37 82 -116 135 -215 135c-143 0 -246 -108 -246 -254s103 -254 246 -254c99 0 178 53 215 135h121c-44 -145 -173 -243 -335 -243z" />
    <glyph glyph-name="uni0422" unicode="&#x422;" horiz-adv-x="602" 
d="M571 700v-108h-214v-592h-113v592h-213v108h540z" />
    <glyph glyph-name="uni0423" unicode="&#x423;" horiz-adv-x="712" 
d="M681 700l-380 -700h-126l135 248l-248 452h127l184 -330l182 330h126z" />
    <glyph glyph-name="uni040E" unicode="&#x40e;" horiz-adv-x="712" 
d="M532 955v-22c0 -97 -76 -156 -163 -156c-88 0 -164 59 -164 156v22h90v-19c0 -44 29 -72 74 -72c44 0 73 28 73 72v19h90zM681 700l-380 -700h-126l135 248l-248 452h127l184 -330l182 330h126z" />
    <glyph glyph-name="uni0424" unicode="&#x424;" horiz-adv-x="920" 
d="M584 623c158 0 284 -101 284 -266s-124 -266 -284 -266h-58v-91h-113v91h-59c-160 0 -284 101 -284 266s126 266 284 266h59v77h113v-77h58zM354 198h59v317h-59c-96 0 -170 -53 -170 -158c0 -106 74 -159 170 -159zM584 198c96 0 170 53 170 159c0 105 -74 158 -170 158
h-58v-317h58z" />
    <glyph glyph-name="uni0425" unicode="&#x425;" horiz-adv-x="658" 
d="M627 0h-134l-165 266l-163 -266h-134l228 361l-218 339h135l155 -250l155 250h134l-220 -346z" />
    <glyph glyph-name="uni0427" unicode="&#x427;" horiz-adv-x="659" 
d="M464 700h113v-700h-113v258c-38 -18 -93 -33 -168 -33c-145 0 -244 71 -244 236v239h114v-226c0 -105 58 -141 152 -141c62 0 115 11 146 30v337z" />
    <glyph glyph-name="uni0426" unicode="&#x426;" horiz-adv-x="782" 
d="M638 108h113v-251h-113v143h-556v108v592h113v-592h330v592h113v-592z" />
    <glyph glyph-name="uni0428" unicode="&#x428;" horiz-adv-x="1019" 
d="M825 700h113v-614v-86h-856v108v592h113v-592h258v592h113v-592h259v592z" />
    <glyph glyph-name="uni0429" unicode="&#x429;" horiz-adv-x="1082" 
d="M938 108h113v-251h-113v143h-856v108v592h113v-592h258v592h113v-592h259v592h113v-592z" />
    <glyph glyph-name="uni042C" unicode="&#x42c;" horiz-adv-x="661" 
d="M374 429c155 0 236 -80 236 -214c0 -133 -86 -215 -239 -215h-289v700h113v-271h179zM367 108c87 0 128 42 128 108c0 67 -38 107 -125 107h-175v-215h172z" />
    <glyph glyph-name="uni042A" unicode="&#x42a;" horiz-adv-x="746" 
d="M459 429c155 0 235 -80 235 -214c0 -133 -85 -215 -238 -215h-290v592h-135v108h198h51v-271h179zM452 108c87 0 128 42 128 108c0 67 -38 107 -125 107h-175v-215h172z" />
    <glyph glyph-name="uni042B" unicode="&#x42b;" horiz-adv-x="878" 
d="M374 429c155 0 236 -80 236 -214c0 -133 -86 -215 -239 -215h-289v700h113v-271h179zM699 700h113v-700h-113v700zM367 108c87 0 128 42 128 108c0 67 -38 107 -125 107h-175v-215h172z" />
    <glyph glyph-name="uni0404" unicode="&#x404;" horiz-adv-x="792" 
d="M415 96c99 0 178 53 215 135h121c-44 -145 -173 -243 -335 -243c-208 0 -361 155 -361 362s153 362 361 362c162 0 291 -98 335 -243h-121c-37 82 -116 135 -215 135c-124 0 -218 -81 -241 -198h294v-108h-295c22 -119 116 -202 242 -202z" />
    <glyph glyph-name="uni042D" unicode="&#x42d;" horiz-adv-x="789" 
d="M378 712c208 0 357 -155 357 -362s-149 -362 -356 -362c-165 0 -297 98 -338 243h121c35 -85 119 -135 217 -135c126 0 217 84 237 203h-295v108h294c-22 116 -112 197 -236 197c-99 0 -182 -50 -217 -135h-121c40 145 171 243 337 243z" />
    <glyph glyph-name="uni0406" unicode="&#x406;" horiz-adv-x="277" 
d="M82 0v700h113v-700h-113z" />
    <glyph glyph-name="uni0407" unicode="&#x407;" horiz-adv-x="277" 
d="M24 939c39 0 67 -28 67 -65s-28 -65 -67 -65c-38 0 -67 28 -67 65s29 65 67 65zM251 939c39 0 68 -28 68 -65s-29 -65 -68 -65s-68 28 -68 65s29 65 68 65zM82 0v700h113v-700h-113z" />
    <glyph glyph-name="uni042E" unicode="&#x42e;" horiz-adv-x="1084" 
d="M670 712c205 0 363 -156 363 -362s-158 -362 -363 -362c-186 0 -334 129 -359 307h-116v-295h-113v700h113v-297h115c25 179 173 309 360 309zM670 96c141 0 248 108 248 254s-107 254 -248 254s-248 -108 -249 -254c1 -146 108 -254 249 -254z" />
    <glyph glyph-name="uni042F" unicode="&#x42f;" horiz-adv-x="673" 
d="M302 700h289v-700h-113v253h-117l-191 -253h-139l201 261c-106 25 -168 103 -168 216c0 134 85 223 238 223zM314 356h164v236h-164c-93 0 -136 -49 -136 -118s43 -118 136 -118z" />
    <glyph glyph-name="uni0430" unicode="&#x430;" horiz-adv-x="673" 
d="M494 550h113v-550h-113v92c-40 -63 -106 -104 -192 -104c-147 0 -254 119 -254 287s109 287 253 287c87 0 153 -43 193 -106v94zM326 96c96 0 169 73 169 179c0 105 -73 179 -169 179s-164 -74 -164 -179c0 -106 69 -179 164 -179z" />
    <glyph glyph-name="uni0431" unicode="&#x431;" horiz-adv-x="661" 
d="M365 537c140 0 249 -105 249 -265c0 -171 -122 -284 -279 -284c-154 0 -286 105 -287 336c0 391 192 458 497 458v-107c-250 0 -366 -39 -382 -253c40 76 119 115 202 115zM330 86c95 0 171 70 171 180c0 105 -71 174 -165 174c-93 0 -174 -68 -174 -174
c0 -110 73 -180 168 -180z" />
    <glyph glyph-name="uni0432" unicode="&#x432;" horiz-adv-x="582" 
d="M441 295c68 -20 102 -70 102 -137c0 -104 -75 -158 -197 -158h-280v550h256c119 0 194 -38 194 -139c0 -56 -30 -89 -75 -116zM402 390c0 44 -20 71 -89 71h-134v-138h132c68 0 91 28 91 67zM339 89c70 0 90 32 90 78c0 45 -24 74 -91 74h-159v-152h160z" />
    <glyph glyph-name="uni0433" unicode="&#x433;" horiz-adv-x="456" 
d="M432 550v-106h-253v-444h-113v550h366z" />
    <glyph glyph-name="uni0491" unicode="&#x491;" horiz-adv-x="456" 
d="M432 624v-180h-253v-444h-113v550h253v74h113z" />
    <glyph glyph-name="uni0434" unicode="&#x434;" horiz-adv-x="740" 
d="M616 106h100v-249h-113v143h-466v-143h-113v249h96c25 19 41 61 54 139l49 305h393v-444zM243 106h260v338h-184l-33 -204c-10 -64 -24 -106 -43 -134z" />
    <glyph glyph-name="uni0435" unicode="&#x435;" horiz-adv-x="654" 
d="M332 562c177 0 289 -137 278 -318h-447c9 -101 80 -157 172 -157c66 0 121 28 147 82h117c-43 -123 -148 -181 -265 -181c-167 0 -286 120 -286 286s118 288 284 288zM332 464c-86 0 -144 -54 -163 -128h320c-17 75 -74 128 -157 128z" />
    <glyph glyph-name="uni0451" unicode="&#x451;" horiz-adv-x="654" 
d="M213 664c-38 0 -67 27 -67 65c0 37 29 64 67 64c39 0 67 -27 67 -64c0 -38 -28 -65 -67 -65zM440 664c-39 0 -68 27 -68 65c0 37 29 64 68 64s68 -27 68 -64c0 -38 -29 -65 -68 -65zM332 562c177 0 289 -137 278 -318h-447c9 -101 80 -157 172 -157c66 0 121 28 147 82
h117c-43 -123 -148 -181 -265 -181c-167 0 -286 120 -286 286s118 288 284 288zM332 464c-86 0 -144 -54 -163 -128h320c-17 75 -74 128 -157 128z" />
    <glyph glyph-name="uni0436" unicode="&#x436;" horiz-adv-x="971" 
d="M947 0h-145l-260 254v-254h-113v254l-260 -254h-145l290 289l-269 261h146l238 -239v239h113v-239l238 239h146l-269 -261z" />
    <glyph glyph-name="uni0437" unicode="&#x437;" horiz-adv-x="576" 
d="M448 291c59 -22 89 -73 89 -135c0 -106 -93 -168 -237 -168c-172 0 -247 79 -268 193h114c16 -76 65 -105 151 -105c88 0 126 35 126 88c0 38 -18 76 -97 76h-102v87h82c77 0 100 28 100 68c0 45 -31 81 -117 81c-59 0 -113 -19 -128 -82h-115c20 96 92 168 245 168
c140 0 229 -61 229 -159c0 -56 -29 -91 -72 -112z" />
    <glyph glyph-name="uni0438" unicode="&#x438;" horiz-adv-x="642" 
d="M444 550h133v-550h-113v230l7 174l-272 -404h-133v550h113v-230l-7 -173z" />
    <glyph glyph-name="uni0439" unicode="&#x439;" horiz-adv-x="642" 
d="M322 633c-88 0 -164 58 -164 155v23h90v-19c0 -45 29 -73 74 -73c44 0 73 28 73 73v19h90v-23c0 -97 -76 -155 -163 -155zM444 550h133v-550h-113v230l7 174l-272 -404h-133v550h113v-230l-7 -173z" />
    <glyph glyph-name="uni043A" unicode="&#x43a;" horiz-adv-x="608" 
d="M584 0h-146l-259 254v-254h-113v550h113v-238l238 238h145l-269 -261z" />
    <glyph glyph-name="uni043B" unicode="&#x43b;" horiz-adv-x="658" 
d="M202 550h391v-550h-113v444h-182l-36 -230c-27 -164 -88 -226 -182 -226c-18 0 -38 3 -56 6v102c11 -1 22 -3 33 -3c53 0 76 29 93 131z" />
    <glyph glyph-name="uni043C" unicode="&#x43c;" horiz-adv-x="723" 
d="M524 550h133v-550h-113v230l8 191l-189 -269h-3l-189 269l8 -191v-230h-113v550h133l162 -226z" />
    <glyph glyph-name="uni043D" unicode="&#x43d;" horiz-adv-x="649" 
d="M471 550h113v-550h-113v227h-292v-227h-113v550h113v-216h292v216z" />
    <glyph glyph-name="uni043E" unicode="&#x43e;" horiz-adv-x="665" 
d="M333 562c158 0 285 -121 285 -287c0 -165 -125 -287 -285 -287c-159 0 -285 123 -285 287c0 166 128 287 285 287zM333 454c-95 0 -171 -73 -171 -179s75 -179 171 -179s171 73 171 179s-76 179 -171 179z" />
    <glyph glyph-name="uni043F" unicode="&#x43f;" horiz-adv-x="641" 
d="M576 550v-550h-113v444h-284v-444h-113v550h113h397z" />
    <glyph glyph-name="uni0440" unicode="&#x440;" horiz-adv-x="678" 
d="M377 562c144 0 253 -119 253 -287s-107 -287 -254 -287c-86 0 -152 42 -192 104v-342h-113v800h113v-94c40 63 106 106 193 106zM352 96c95 0 164 73 164 179c0 105 -68 179 -164 179s-169 -74 -169 -179c0 -106 73 -179 169 -179z" />
    <glyph glyph-name="uni0441" unicode="&#x441;" horiz-adv-x="642" 
d="M333 -12c-163 0 -285 123 -285 287s122 287 286 287c130 0 245 -79 270 -212h-117c-21 69 -82 107 -153 107c-102 0 -172 -76 -172 -182c0 -107 72 -182 171 -182c72 0 133 40 154 108h117c-26 -136 -142 -213 -271 -213z" />
    <glyph glyph-name="uni0442" unicode="&#x442;" horiz-adv-x="520" 
d="M496 550v-106h-179v-444h-113v444h-180v106h293h179z" />
    <glyph glyph-name="uni0443" unicode="&#x443;" horiz-adv-x="605" 
d="M460 550h121l-364 -800h-121l145 320l-217 480h121l156 -358z" />
    <glyph glyph-name="uni045E" unicode="&#x45e;" horiz-adv-x="605" 
d="M303 633c-88 0 -164 58 -164 155v23h90v-19c0 -45 29 -73 74 -73c44 0 73 28 73 73v19h90v-23c0 -97 -76 -155 -163 -155zM460 550h121l-364 -800h-121l145 320l-217 480h121l156 -358z" />
    <glyph glyph-name="uni0444" unicode="&#x444;" horiz-adv-x="1102" 
d="M800 562c145 0 254 -119 254 -287s-108 -287 -254 -287c-86 0 -151 41 -193 103v-329h-113v329c-41 -62 -106 -103 -192 -103c-147 0 -254 119 -254 287s109 287 253 287c86 0 153 -42 193 -106v314h113v-314c41 64 107 106 193 106zM326 96c96 0 169 73 169 179
c0 105 -73 179 -169 179s-164 -74 -164 -179c0 -106 69 -179 164 -179zM776 96c95 0 164 73 164 179c0 105 -68 179 -164 179s-169 -74 -169 -179c0 -106 73 -179 169 -179z" />
    <glyph glyph-name="uni0445" unicode="&#x445;" horiz-adv-x="580" 
d="M556 0h-135l-133 197l-128 -197h-136l197 283l-186 267h135l122 -184l118 184h136l-186 -269z" />
    <glyph glyph-name="uni0447" unicode="&#x447;" horiz-adv-x="592" 
d="M413 550h113v-550h-113v188c-38 -16 -87 -27 -145 -27c-122 0 -217 51 -217 201v188h113v-161c0 -89 31 -127 126 -127c44 0 92 9 123 27v261z" />
    <glyph glyph-name="uni0446" unicode="&#x446;" horiz-adv-x="686" 
d="M562 106h100v-249h-113v143h-370h-113v550h113v-444h270v444h113v-444z" />
    <glyph glyph-name="uni0448" unicode="&#x448;" horiz-adv-x="871" 
d="M692 550h113v-550h-113h-313h-257h-56v550h113v-444h200v444h113v-444h200v444z" />
    <glyph glyph-name="uni0449" unicode="&#x449;" horiz-adv-x="929" 
d="M805 106h100v-249h-113v143h-300h-313h-113v550h113v-444h200v444h113v-444h200v444h113v-444z" />
    <glyph glyph-name="uni044C" unicode="&#x44c;" horiz-adv-x="583" 
d="M338 378c113 0 197 -53 197 -185s-88 -193 -201 -193h-268v550h113v-172h159zM331 108c69 0 90 36 90 85c0 51 -20 85 -89 85h-153v-170h152z" />
    <glyph glyph-name="uni044A" unicode="&#x44a;" horiz-adv-x="665" 
d="M420 378c113 0 197 -53 197 -185s-88 -193 -201 -193h-267l-1 443h-124v107h237v-172h159zM413 108c69 0 90 36 90 85c0 51 -20 85 -89 85h-153l1 -170h151z" />
    <glyph glyph-name="uni044B" unicode="&#x44b;" horiz-adv-x="793" 
d="M337 378c113 0 197 -53 197 -185s-88 -193 -201 -193h-267v550h113v-172h158zM615 550h113v-550h-113v550zM329 108c69 0 91 36 91 85c0 51 -20 85 -89 85h-152v-170h150z" />
    <glyph glyph-name="uni0454" unicode="&#x454;" horiz-adv-x="642" 
d="M333 90c72 0 133 40 154 111h117c-26 -136 -142 -213 -271 -213c-163 0 -285 123 -285 287s122 287 286 287c130 0 245 -79 270 -212h-117c-21 72 -82 110 -153 110c-87 0 -150 -55 -167 -138h202v-89h-203c16 -87 81 -143 167 -143z" />
    <glyph glyph-name="uni044D" unicode="&#x44d;" horiz-adv-x="644" 
d="M311 562c165 0 285 -123 285 -287s-119 -287 -284 -287c-130 0 -249 76 -274 213h117c20 -72 85 -111 157 -111c87 0 151 57 166 143h-203v89h202c-16 83 -79 138 -166 138c-74 0 -137 -40 -156 -110h-117c24 133 141 212 273 212z" />
    <glyph glyph-name="uni0456" unicode="&#x456;" horiz-adv-x="244" 
d="M122 798c43 0 74 -29 74 -69c0 -41 -31 -71 -74 -71c-41 0 -73 30 -73 71c0 40 32 69 73 69zM66 0v550h113v-550h-113z" />
    <glyph glyph-name="uni0457" unicode="&#x457;" horiz-adv-x="244" 
d="M8 793c39 0 67 -27 67 -64c0 -38 -28 -65 -67 -65c-38 0 -67 27 -67 65c0 37 29 64 67 64zM235 793c39 0 68 -27 68 -64c0 -38 -29 -65 -68 -65s-68 27 -68 65c0 37 29 64 68 64zM66 0v550h113v-550h-113z" />
    <glyph glyph-name="uni044E" unicode="&#x44e;" horiz-adv-x="899" 
d="M566 562c158 0 285 -122 285 -287s-125 -287 -285 -287c-141 0 -256 96 -280 233h-107v-221h-113v550h113v-222h107c24 138 140 234 280 234zM566 96c96 0 171 73 171 179c0 105 -75 179 -171 179c-95 0 -171 -73 -171 -179s76 -179 171 -179z" />
    <glyph glyph-name="uni044F" unicode="&#x44f;" horiz-adv-x="594" 
d="M252 550h276v-550h-113v199h-109l-143 -199h-139l161 207c-76 19 -133 67 -133 159c0 127 87 184 200 184zM261 292h154v156h-157c-70 0 -92 -34 -92 -80c0 -45 28 -76 95 -76z" />
    <glyph glyph-name="zero" unicode="0" horiz-adv-x="687" 
d="M343 712c184 0 292 -137 292 -362s-108 -362 -292 -362c-182 0 -291 135 -291 362s109 362 291 362zM343 96c112 0 178 78 178 254s-66 254 -178 254c-111 0 -177 -78 -177 -254s66 -254 177 -254z" />
    <glyph glyph-name="one" unicode="1" horiz-adv-x="385" 
d="M252 700h51v-700h-113v568l-159 -65v111z" />
    <glyph glyph-name="two" unicode="2" horiz-adv-x="613" 
d="M226 108h346v-108h-531v81l203 178c157 137 197 172 197 234c0 61 -47 111 -133 111c-85 0 -132 -49 -147 -129h-114c16 146 121 237 266 237c149 0 242 -96 242 -214c0 -106 -74 -169 -217 -294l-110 -95z" />
    <glyph glyph-name="three" unicode="3" horiz-adv-x="613" 
d="M459 368c71 -26 113 -87 113 -169c0 -132 -104 -211 -256 -211c-141 0 -259 72 -275 221h114c17 -82 79 -114 160 -114c93 0 143 45 143 114c0 59 -35 100 -133 100h-95v100h75c85 0 131 28 131 89c0 63 -48 107 -132 107c-71 0 -121 -27 -140 -105h-114
c20 145 126 212 257 212c140 0 243 -83 243 -200c0 -64 -33 -119 -91 -144z" />
    <glyph glyph-name="four" unicode="4" horiz-adv-x="636" 
d="M606 267v-106h-101v-161h-113v161l-361 -1v107l306 433h168v-433h101zM154 267h238v328h-9z" />
    <glyph glyph-name="five" unicode="5" horiz-adv-x="615" 
d="M339 466c128 0 236 -86 236 -231c0 -149 -113 -247 -261 -247c-134 0 -257 75 -273 227h114c16 -80 81 -120 158 -120c88 0 147 61 147 141c0 83 -61 136 -145 136c-70 0 -116 -32 -142 -74h-108l86 402h391v-108h-306l-36 -170c35 27 79 44 139 44z" />
    <glyph glyph-name="six" unicode="6" horiz-adv-x="615" 
d="M340 474c120 0 234 -80 234 -231c0 -154 -118 -255 -267 -255c-145 0 -266 97 -266 256c0 132 88 239 251 456h133l-194 -254c32 17 65 28 109 28zM307 96c87 0 153 57 153 147c0 91 -67 144 -152 144c-89 0 -153 -55 -153 -145s67 -146 152 -146z" />
    <glyph glyph-name="seven" unicode="7" horiz-adv-x="550" 
d="M31 700h488v-83l-304 -617h-128l297 592h-353v108z" />
    <glyph glyph-name="eight" unicode="8" horiz-adv-x="609" 
d="M451 367c76 -27 117 -93 117 -173c0 -128 -114 -206 -263 -206c-150 0 -264 78 -264 206c0 80 41 146 117 173c-60 26 -95 82 -95 149c0 117 105 196 242 196c136 0 241 -79 241 -196c0 -67 -35 -123 -95 -149zM305 605c-82 0 -129 -40 -129 -103c0 -53 35 -92 129 -92
c93 0 128 39 128 92c0 63 -47 103 -128 103zM305 95c91 0 150 38 150 109c0 74 -53 108 -150 108c-98 0 -151 -35 -151 -108c0 -71 59 -109 151 -109z" />
    <glyph glyph-name="nine" unicode="9" horiz-adv-x="615" 
d="M308 712c145 0 266 -97 266 -256c0 -132 -88 -239 -251 -456h-133l194 254c-32 -17 -65 -28 -109 -28c-120 0 -234 80 -234 231c0 154 118 255 267 255zM307 313c89 0 153 55 153 145s-67 146 -152 146c-87 0 -153 -57 -153 -147c0 -91 67 -144 152 -144z" />
    <glyph glyph-name="zero.subs" horiz-adv-x="446" 
d="M223 361c-112 0 -189 73 -189 210s77 211 189 211c111 0 189 -74 189 -211s-78 -210 -189 -210zM223 449c58 0 90 39 90 122c0 84 -32 122 -90 122s-90 -38 -90 -122c0 -83 32 -122 90 -122z" />
    <glyph glyph-name="one.subs" horiz-adv-x="283" 
d="M198 770h51v-398h-97v297l-118 -40v89z" />
    <glyph glyph-name="two.subs" horiz-adv-x="420" 
d="M166 451h220v-79h-352v71l146 110c72 54 91 72 91 105c0 30 -21 51 -60 51c-41 0 -67 -21 -73 -72h-99c7 80 65 145 174 145c107 0 157 -64 157 -129c0 -63 -47 -104 -134 -157z" />
    <glyph glyph-name="three.subs" horiz-adv-x="419" 
d="M324 584c36 -17 61 -51 61 -97c0 -63 -51 -126 -167 -126c-109 0 -175 55 -184 136h99c9 -44 39 -64 81 -64c47 0 72 24 72 58c0 35 -20 53 -53 53h-64v64h51c30 0 54 18 54 49s-23 52 -63 52c-38 0 -65 -20 -71 -64h-99c7 82 71 137 172 137c106 0 160 -61 160 -124
c0 -36 -19 -59 -49 -74z" />
    <glyph glyph-name="four.subs" horiz-adv-x="443" 
d="M409 530v-79h-71v-79h-98v79h-206v79l183 240h121v-240h71zM114 530h126v169z" />
    <glyph glyph-name="five.subs" horiz-adv-x="412" 
d="M231 636c86 0 147 -52 147 -133c0 -75 -53 -142 -165 -142c-108 0 -167 61 -179 132h99c9 -38 39 -60 77 -60c45 0 71 29 71 70c0 39 -24 70 -71 70c-29 0 -52 -14 -68 -35h-92l49 232h255v-76h-196l-18 -88c24 19 53 30 91 30z" />
    <glyph glyph-name="six.subs" horiz-adv-x="402" 
d="M229 634c89 0 140 -65 140 -133c0 -70 -56 -140 -166 -140c-114 0 -169 75 -169 151c0 75 54 137 160 258h104l-131 -146c20 6 41 10 62 10zM201 437c45 0 70 28 70 66s-24 66 -70 66c-43 0 -70 -26 -70 -65c0 -38 25 -67 70 -67z" />
    <glyph glyph-name="seven.subs" horiz-adv-x="368" 
d="M34 770h300v-63l-165 -335h-92l159 319h-202v79z" />
    <glyph glyph-name="eight.subs" horiz-adv-x="418" 
d="M312 582c40 -16 72 -51 72 -101c0 -67 -56 -120 -175 -120c-120 0 -175 53 -175 120c0 50 32 85 72 101c-34 15 -60 44 -60 86c0 64 57 114 163 114s163 -50 163 -114c0 -42 -26 -71 -60 -86zM209 709c-39 0 -64 -21 -64 -52c0 -30 23 -50 64 -50s64 20 64 50
c0 31 -25 52 -64 52zM209 433c50 0 76 23 76 56c0 32 -24 54 -76 54s-76 -22 -76 -54c0 -33 26 -56 76 -56z" />
    <glyph glyph-name="nine.subs" horiz-adv-x="402" 
d="M200 782c114 0 169 -76 169 -151s-55 -138 -161 -259h-103l130 147c-20 -6 -40 -10 -61 -10c-90 0 -140 64 -140 132c0 70 55 141 166 141zM201 574c44 0 70 26 70 65c0 37 -24 66 -70 66c-45 0 -70 -29 -70 -66c0 -38 24 -65 70 -65z" />
    <glyph glyph-name="fraction" unicode="&#x2044;" horiz-adv-x="221" 
d="M-144 0l400 700h109l-400 -700h-109z" />
    <glyph glyph-name="onehalf" unicode="&#xbd;" horiz-adv-x="962" 
d="M249 302h-97v297l-118 -40v89l164 52h51v-398zM577 700h109l-400 -700h-109zM708 79h220v-79h-352v70l146 110c72 55 91 72 91 105c0 31 -21 52 -60 52c-41 0 -67 -21 -73 -73h-99c7 80 65 145 174 145c107 0 157 -64 157 -128c0 -63 -47 -104 -134 -158z" />
    <glyph glyph-name="onequarter" unicode="&#xbc;" horiz-adv-x="917" 
d="M249 302h-97v297l-118 -40v89l164 52h51v-398zM577 700h109l-400 -700h-109zM883 158v-79h-71v-79h-98v79h-206v79l183 240h121v-240h71zM588 158h126v168z" />
    <glyph glyph-name="threequarters" unicode="&#xbe;" horiz-adv-x="1015" 
d="M385 417c0 -63 -51 -126 -167 -126c-109 0 -175 55 -184 136h99c9 -44 39 -64 81 -64c47 0 72 24 72 58c0 35 -20 53 -53 53h-64v64h51c30 0 54 18 54 49s-23 52 -63 52c-38 0 -65 -20 -71 -64h-99c7 82 71 137 172 137c106 0 160 -61 160 -124c0 -36 -20 -59 -49 -74
c36 -18 61 -52 61 -97zM675 700h109l-400 -700h-109zM981 158v-79h-71v-79h-98v79h-206v79l183 240h121v-240h71zM686 158h126v168z" />
    <glyph glyph-name="oneeighth" unicode="&#x215b;" horiz-adv-x="959" 
d="M249 302h-97v297l-118 -40v89l164 52h51v-398zM577 700h109l-400 -700h-109zM853 209c41 -16 73 -50 73 -101c0 -66 -56 -120 -175 -120c-120 0 -175 54 -175 120c0 51 32 85 73 101c-35 15 -61 43 -61 86c0 65 57 114 163 114s163 -49 163 -114c0 -43 -26 -71 -61 -86z
M751 337c-39 0 -64 -21 -64 -53c0 -29 23 -50 64 -50s64 21 64 50c0 32 -25 53 -64 53zM751 61c50 0 76 22 76 55s-24 55 -76 55s-76 -22 -76 -55s26 -55 76 -55z" />
    <glyph glyph-name="threeeighths" unicode="&#x215c;" horiz-adv-x="1057" 
d="M385 417c0 -63 -51 -126 -167 -126c-109 0 -175 55 -184 136h99c9 -44 39 -64 81 -64c47 0 72 24 72 58c0 35 -20 53 -53 53h-64v64h51c30 0 54 18 54 49s-23 52 -63 52c-38 0 -65 -20 -71 -64h-99c7 82 71 137 172 137c106 0 160 -61 160 -124c0 -36 -20 -59 -49 -74
c36 -18 61 -52 61 -97zM675 700h109l-400 -700h-109zM950 209c41 -16 73 -50 73 -101c0 -66 -56 -120 -175 -120c-120 0 -175 54 -175 120c0 51 32 85 73 101c-35 15 -61 43 -61 86c0 65 57 114 163 114s163 -49 163 -114c0 -43 -26 -71 -61 -86zM848 337
c-39 0 -64 -21 -64 -53c0 -29 23 -50 64 -50s64 21 64 50c0 32 -25 53 -64 53zM848 61c50 0 76 22 76 55s-24 55 -76 55s-76 -22 -76 -55s26 -55 76 -55z" />
    <glyph glyph-name="fiveeighths" unicode="&#x215d;" horiz-adv-x="1050" 
d="M378 433c0 -75 -53 -142 -165 -142c-108 0 -167 61 -179 132h99c9 -38 39 -60 77 -60c45 0 71 29 71 70c0 39 -24 70 -71 70c-29 0 -52 -14 -68 -35h-92l49 232h255v-76h-195l-19 -87c24 18 53 29 91 29c86 0 147 -52 147 -133zM668 700h109l-400 -700h-109zM944 209
c41 -16 73 -50 73 -101c0 -66 -56 -120 -175 -120c-120 0 -175 54 -175 120c0 51 32 85 73 101c-35 15 -61 43 -61 86c0 65 57 114 163 114s163 -49 163 -114c0 -43 -26 -71 -61 -86zM842 337c-39 0 -64 -21 -64 -53c0 -29 23 -50 64 -50s64 21 64 50c0 32 -25 53 -64 53z
M842 61c50 0 76 22 76 55s-24 55 -76 55s-76 -22 -76 -55s26 -55 76 -55z" />
    <glyph glyph-name="seveneighths" unicode="&#x215e;" horiz-adv-x="943" 
d="M169 302h-92l159 319h-202v79h300v-63zM560 700h109l-400 -700h-109zM836 209c41 -16 73 -50 73 -101c0 -66 -56 -120 -175 -120c-120 0 -175 54 -175 120c0 51 32 85 73 101c-35 15 -61 43 -61 86c0 65 57 114 163 114s163 -49 163 -114c0 -43 -26 -71 -61 -86zM734 337
c-39 0 -64 -21 -64 -53c0 -29 23 -50 64 -50s64 21 64 50c0 32 -25 53 -64 53zM734 61c50 0 76 22 76 55s-24 55 -76 55s-76 -22 -76 -55s26 -55 76 -55z" />
    <glyph glyph-name="zero.dnom" horiz-adv-x="446" 
d="M223 -12c-112 0 -189 74 -189 211s77 210 189 210c111 0 189 -73 189 -210s-78 -211 -189 -211zM223 77c58 0 90 38 90 122c0 83 -32 122 -90 122s-90 -39 -90 -122c0 -84 32 -122 90 -122z" />
    <glyph glyph-name="one.dnom" horiz-adv-x="283" 
d="M198 398h51v-398h-97v297l-118 -40v88z" />
    <glyph glyph-name="two.dnom" horiz-adv-x="420" 
d="M167 79h219v-79h-352v70l146 110c72 55 91 72 91 105c0 31 -21 52 -60 52c-41 0 -67 -21 -73 -73h-99c7 80 65 145 174 145c107 0 157 -64 157 -128c0 -63 -47 -104 -134 -158z" />
    <glyph glyph-name="three.dnom" horiz-adv-x="419" 
d="M324 212c36 -18 61 -52 61 -98c0 -63 -51 -126 -167 -126c-109 0 -175 56 -184 137h99c9 -45 39 -64 81 -64c47 0 72 24 72 57c0 35 -20 54 -53 54h-64v63h51c30 0 54 19 54 49c0 31 -23 53 -63 53c-38 0 -65 -21 -71 -64h-99c7 81 71 136 172 136
c106 0 160 -61 160 -123c0 -36 -20 -59 -49 -74z" />
    <glyph glyph-name="four.dnom" horiz-adv-x="443" 
d="M409 158v-79h-71v-79h-98v79h-206v79l183 240h121v-240h71zM114 158h126v168z" />
    <glyph glyph-name="five.dnom" horiz-adv-x="412" 
d="M231 264c86 0 147 -53 147 -133c0 -76 -53 -143 -165 -143c-108 0 -167 62 -179 132h99c9 -38 39 -59 77 -59c45 0 71 29 71 70c0 39 -24 70 -71 70c-29 0 -52 -14 -68 -36h-92l49 233h255v-76h-195l-19 -88c24 19 53 30 91 30z" />
    <glyph glyph-name="six.dnom" horiz-adv-x="402" 
d="M229 261c89 0 140 -65 140 -132c0 -71 -56 -141 -166 -141c-114 0 -169 76 -169 151s54 138 160 259h104l-131 -147c20 7 41 10 62 10zM201 65c45 0 70 28 70 66c0 37 -24 65 -70 65c-43 0 -70 -26 -70 -65c0 -37 25 -66 70 -66z" />
    <glyph glyph-name="seven.dnom" horiz-adv-x="368" 
d="M34 398h300v-63l-165 -335h-92l159 319h-202v79z" />
    <glyph glyph-name="eight.dnom" horiz-adv-x="418" 
d="M311 209c41 -16 73 -51 73 -101c0 -66 -56 -120 -175 -120c-120 0 -175 54 -175 120c0 50 32 85 72 101c-34 15 -60 44 -60 86c0 65 57 114 163 114s163 -49 163 -114c0 -42 -26 -71 -61 -86zM209 337c-39 0 -64 -21 -64 -53c0 -29 23 -50 64 -50s64 21 64 50
c0 32 -25 53 -64 53zM209 61c50 0 76 22 76 55s-24 55 -76 55s-76 -22 -76 -55s26 -55 76 -55z" />
    <glyph glyph-name="nine.dnom" horiz-adv-x="402" 
d="M200 409c114 0 169 -75 169 -151c0 -75 -55 -137 -161 -258h-103l130 146c-20 -6 -41 -10 -61 -10c-90 0 -140 65 -140 132c0 71 55 141 166 141zM201 201c44 0 70 26 70 65c0 38 -24 67 -70 67c-45 0 -70 -29 -70 -67c0 -37 24 -65 70 -65z" />
    <glyph glyph-name="zero.numr" horiz-adv-x="446" 
d="M223 291c-112 0 -189 73 -189 210s77 211 189 211c111 0 189 -74 189 -211s-78 -210 -189 -210zM223 379c58 0 90 39 90 122c0 84 -32 122 -90 122s-90 -38 -90 -122c0 -83 32 -122 90 -122z" />
    <glyph glyph-name="one.numr" horiz-adv-x="283" 
d="M198 700h51v-398h-97v297l-118 -40v89z" />
    <glyph glyph-name="two.numr" horiz-adv-x="420" 
d="M167 381h219v-79h-352v71l146 110c72 54 91 72 91 105c0 30 -21 51 -60 51c-41 0 -67 -21 -73 -72h-99c7 80 65 145 174 145c107 0 157 -64 157 -129c0 -63 -47 -104 -134 -157z" />
    <glyph glyph-name="three.numr" horiz-adv-x="419" 
d="M324 514c36 -18 61 -52 61 -97c0 -63 -51 -126 -167 -126c-109 0 -175 55 -184 136h99c9 -44 39 -64 81 -64c47 0 72 24 72 58c0 35 -20 53 -53 53h-64v64h51c30 0 54 18 54 49s-23 52 -63 52c-38 0 -65 -20 -71 -64h-99c7 82 71 137 172 137c106 0 160 -61 160 -124
c0 -36 -20 -59 -49 -74z" />
    <glyph glyph-name="four.numr" horiz-adv-x="443" 
d="M409 460v-79h-71v-79h-98v79h-206v79l183 240h121v-240h71zM114 460h126v168z" />
    <glyph glyph-name="five.numr" horiz-adv-x="412" 
d="M231 566c86 0 147 -52 147 -133c0 -75 -53 -142 -165 -142c-108 0 -167 61 -179 132h99c9 -38 39 -60 77 -60c45 0 71 29 71 70c0 39 -24 70 -71 70c-29 0 -52 -14 -68 -35h-92l49 232h255v-76h-195l-19 -87c24 18 53 29 91 29z" />
    <glyph glyph-name="six.numr" horiz-adv-x="402" 
d="M229 564c89 0 140 -65 140 -133c0 -70 -56 -140 -166 -140c-114 0 -169 75 -169 151c0 75 54 137 160 258h104l-131 -146c20 6 41 10 62 10zM201 367c45 0 70 28 70 66s-24 66 -70 66c-43 0 -70 -26 -70 -65c0 -38 25 -67 70 -67z" />
    <glyph glyph-name="seven.numr" horiz-adv-x="368" 
d="M34 700h300v-63l-165 -335h-92l159 319h-202v79z" />
    <glyph glyph-name="eight.numr" horiz-adv-x="418" 
d="M311 512c41 -16 73 -51 73 -101c0 -67 -56 -120 -175 -120c-120 0 -175 53 -175 120c0 50 32 85 72 101c-34 15 -60 43 -60 86c0 64 57 114 163 114s163 -50 163 -114c0 -43 -26 -71 -61 -86zM209 639c-39 0 -64 -21 -64 -52c0 -30 23 -50 64 -50s64 20 64 50
c0 31 -25 52 -64 52zM209 363c50 0 76 23 76 56c0 32 -24 54 -76 54s-76 -22 -76 -54c0 -33 26 -56 76 -56z" />
    <glyph glyph-name="nine.numr" horiz-adv-x="402" 
d="M200 712c114 0 169 -76 169 -151s-55 -138 -161 -259h-103l130 147c-20 -7 -41 -10 -61 -10c-90 0 -140 64 -140 132c0 70 55 141 166 141zM201 504c44 0 70 26 70 65c0 37 -24 66 -70 66c-45 0 -70 -29 -70 -66c0 -38 24 -65 70 -65z" />
    <glyph glyph-name="uni2070" unicode="&#x2070;" horiz-adv-x="446" 
d="M223 361c-112 0 -189 73 -189 210s77 211 189 211c111 0 189 -74 189 -211s-78 -210 -189 -210zM223 449c58 0 90 39 90 122c0 84 -32 122 -90 122s-90 -38 -90 -122c0 -83 32 -122 90 -122z" />
    <glyph glyph-name="uni00B9" unicode="&#xb9;" horiz-adv-x="283" 
d="M198 770h51v-398h-97v297l-118 -40v89z" />
    <glyph glyph-name="uni00B2" unicode="&#xb2;" horiz-adv-x="420" 
d="M167 451h219v-79h-352v71l146 110c72 54 91 72 91 105c0 30 -21 51 -60 51c-41 0 -67 -21 -73 -72h-99c7 80 65 145 174 145c107 0 157 -64 157 -129c0 -63 -47 -104 -134 -157z" />
    <glyph glyph-name="uni00B3" unicode="&#xb3;" horiz-adv-x="419" 
d="M324 584c36 -18 61 -52 61 -97c0 -63 -51 -126 -167 -126c-109 0 -175 55 -184 136h99c9 -44 39 -64 81 -64c47 0 72 24 72 58c0 35 -20 53 -53 53h-64v64h51c30 0 54 18 54 49s-23 52 -63 52c-38 0 -65 -20 -71 -64h-99c7 82 71 137 172 137c106 0 160 -61 160 -124
c0 -36 -20 -59 -49 -74z" />
    <glyph glyph-name="uni2074" unicode="&#x2074;" horiz-adv-x="443" 
d="M409 530v-79h-71v-79h-98v79h-206v79l183 240h121v-240h71zM114 530h126v168z" />
    <glyph glyph-name="uni2075" unicode="&#x2075;" horiz-adv-x="412" 
d="M231 636c86 0 147 -52 147 -133c0 -75 -53 -142 -165 -142c-108 0 -167 61 -179 132h99c9 -38 39 -60 77 -60c45 0 71 29 71 70c0 39 -24 70 -71 70c-29 0 -52 -14 -68 -35h-92l49 232h255v-76h-195l-19 -87c24 18 53 29 91 29z" />
    <glyph glyph-name="uni2076" unicode="&#x2076;" horiz-adv-x="402" 
d="M229 634c89 0 140 -65 140 -133c0 -70 -56 -140 -166 -140c-114 0 -169 75 -169 151c0 75 54 137 160 258h104l-131 -146c20 6 41 10 62 10zM201 437c45 0 70 28 70 66s-24 66 -70 66c-43 0 -70 -26 -70 -65c0 -38 25 -67 70 -67z" />
    <glyph glyph-name="uni2077" unicode="&#x2077;" horiz-adv-x="368" 
d="M34 770h300v-63l-165 -335h-92l159 319h-202v79z" />
    <glyph glyph-name="uni2078" unicode="&#x2078;" horiz-adv-x="418" 
d="M311 582c41 -16 73 -51 73 -101c0 -67 -56 -120 -175 -120c-120 0 -175 53 -175 120c0 50 32 85 72 101c-34 15 -60 43 -60 86c0 64 57 114 163 114s163 -50 163 -114c0 -43 -26 -71 -61 -86zM209 709c-39 0 -64 -21 -64 -52c0 -30 23 -50 64 -50s64 20 64 50
c0 31 -25 52 -64 52zM209 433c50 0 76 23 76 56c0 32 -24 54 -76 54s-76 -22 -76 -54c0 -33 26 -56 76 -56z" />
    <glyph glyph-name="uni2079" unicode="&#x2079;" horiz-adv-x="402" 
d="M200 782c114 0 169 -76 169 -151s-55 -138 -161 -259h-103l130 147c-20 -7 -41 -10 -61 -10c-90 0 -140 64 -140 132c0 70 55 141 166 141zM201 574c44 0 70 26 70 65c0 37 -24 66 -70 66c-45 0 -70 -29 -70 -66c0 -38 24 -65 70 -65z" />
    <glyph glyph-name="asterisk" unicode="*" horiz-adv-x="564" 
d="M483 541l-133 -56l92 -112l-67 -54l-94 115l-93 -115l-66 54l91 112l-131 56l33 78l125 -52v133h83v-133l125 52z" />
    <glyph glyph-name="backslash" unicode="\" horiz-adv-x="481" 
d="M196 770l203 -770h-114l-203 770h114z" />
    <glyph glyph-name="periodcentered" unicode="&#xb7;" horiz-adv-x="310" 
d="M155 383c42 0 74 -30 74 -71c0 -40 -32 -70 -74 -70s-73 30 -73 70c0 41 31 71 73 71z" />
    <glyph glyph-name="bullet" unicode="&#x2022;" horiz-adv-x="470" 
d="M235 437c86 0 154 -66 154 -151s-68 -151 -154 -151s-153 66 -153 151s67 151 153 151z" />
    <glyph glyph-name="colon" unicode=":" horiz-adv-x="310" 
d="M155 512c42 0 74 -29 74 -70s-32 -71 -74 -71s-73 30 -73 71s31 70 73 70zM155 129c42 0 74 -29 74 -70s-32 -71 -74 -71s-73 30 -73 71s31 70 73 70z" />
    <glyph glyph-name="comma" unicode="," horiz-adv-x="335" 
d="M253 54c1 -20 -2 -48 -96 -226h-75l71 164c-28 9 -47 32 -47 65c0 43 32 72 73 72c31 0 74 -15 74 -75z" />
    <glyph glyph-name="ellipsis" unicode="&#x2026;" horiz-adv-x="809" 
d="M155 129c42 0 74 -29 74 -70s-32 -71 -74 -71s-73 30 -73 71s31 70 73 70zM404 129c42 0 74 -29 74 -70s-32 -71 -74 -71s-73 30 -73 71s31 70 73 70zM653 129c42 0 74 -29 74 -70s-32 -71 -74 -71c-41 0 -73 30 -73 71s32 70 73 70z" />
    <glyph glyph-name="exclam" unicode="!" horiz-adv-x="310" 
d="M212 700v-252l-7 -228h-99l-8 228v252h114zM155 130c42 0 74 -30 74 -71s-32 -71 -74 -71s-73 30 -73 71s31 71 73 71z" />
    <glyph glyph-name="exclamdown" unicode="&#xa1;" horiz-adv-x="310" 
d="M155 333c-42 0 -73 30 -73 70c0 41 31 71 73 71s74 -30 74 -71c0 -40 -32 -70 -74 -70zM212 -238h-114v252l8 228h99l7 -228v-252z" />
    <glyph glyph-name="numbersign" unicode="#" horiz-adv-x="931" 
d="M825 476h-149l-45 -168h150l-24 -92h-150l-57 -216h-104l57 216h-167l-57 -216h-104l57 216h-150l24 92h150l44 168h-150l25 92h149l54 202h104l-53 -202h166l54 202h104l-53 -202h150zM527 308l44 168h-166l-45 -168h167z" />
    <glyph glyph-name="period" unicode="." horiz-adv-x="310" 
d="M155 129c42 0 74 -29 74 -70s-32 -71 -74 -71s-73 30 -73 71s31 70 73 70z" />
    <glyph glyph-name="question" unicode="?" horiz-adv-x="575" 
d="M223 220v52c0 72 37 94 110 132c58 30 87 49 87 99c0 60 -43 104 -131 104c-70 0 -125 -29 -134 -125h-114c9 154 115 230 252 230c139 0 241 -77 241 -206c0 -98 -60 -137 -136 -177c-41 -22 -64 -39 -64 -78v-31h-111zM279 -12c-43 0 -75 29 -75 71s32 70 75 70
s76 -28 76 -70s-33 -71 -76 -71z" />
    <glyph glyph-name="questiondown" unicode="&#xbf;" horiz-adv-x="575" 
d="M295 462c43 0 76 -29 76 -71s-33 -70 -76 -70s-75 28 -75 70s32 71 75 71zM351 230v-52c0 -72 -36 -94 -109 -132c-58 -30 -88 -49 -88 -99c0 -60 43 -104 132 -104c69 0 125 29 134 125h114c-10 -154 -115 -230 -253 -230c-139 0 -240 77 -240 206c0 98 59 137 136 177
c41 22 64 39 64 78v31h110z" />
    <glyph glyph-name="quotedbl" unicode="&#x22;" horiz-adv-x="467" 
d="M95 377l-13 204v119h113v-119l-14 -204h-86zM286 377l-13 204v119h113v-119l-14 -204h-86z" />
    <glyph glyph-name="quotesingle" unicode="'" horiz-adv-x="276" 
d="M195 700v-119l-14 -204h-86l-13 204v119h113z" />
    <glyph glyph-name="semicolon" unicode=";" horiz-adv-x="335" 
d="M180 371c-42 0 -74 30 -74 71s32 70 74 70s73 -29 73 -70s-31 -71 -73 -71zM253 54c1 -20 -2 -48 -96 -226h-75l71 164c-28 9 -47 32 -47 65c0 43 32 72 73 72c31 0 74 -15 74 -75z" />
    <glyph glyph-name="slash" unicode="/" horiz-adv-x="353" 
d="M335 770l-203 -770h-114l203 770h114z" />
    <glyph glyph-name="underscore" unicode="_" horiz-adv-x="623" 
d="M542 -19v-107h-460v107h460z" />
    <glyph glyph-name="braceleft" unicode="{" horiz-adv-x="513" 
d="M318 422c0 -106 -34 -146 -113 -162c79 -16 113 -56 113 -162v-40c0 -160 29 -205 114 -212v-108c-129 0 -227 86 -227 282v46c0 90 -9 138 -99 138h-24v112h24c90 0 99 48 99 138v46c0 196 98 282 227 282v-108c-85 -7 -114 -52 -114 -212v-40z" />
    <glyph glyph-name="braceright" unicode="}" horiz-adv-x="513" 
d="M407 316h25v-112h-25c-90 0 -99 -48 -99 -138v-46c0 -196 -98 -282 -226 -282v108c85 7 113 52 113 212v40c0 106 35 146 113 162c-78 16 -113 56 -113 162v40c0 160 -28 205 -113 212v108c128 0 226 -86 226 -282v-46c0 -90 9 -138 99 -138z" />
    <glyph glyph-name="bracketleft" unicode="[" horiz-adv-x="410" 
d="M329 770v-108h-134v-804h134v-108h-247v1020h247z" />
    <glyph glyph-name="bracketright" unicode="]" horiz-adv-x="410" 
d="M82 770h247v-1020h-247v108h133v804h-133v108z" />
    <glyph glyph-name="parenleft" unicode="(" horiz-adv-x="413" 
d="M331 731c-96 -185 -136 -308 -136 -471s40 -286 136 -471l-86 -51c-114 175 -163 344 -163 522s49 347 163 522z" />
    <glyph glyph-name="parenright" unicode=")" horiz-adv-x="413" 
d="M82 731l86 51c114 -175 163 -344 163 -522s-49 -347 -163 -522l-86 51c96 185 136 308 136 471s-40 286 -136 471z" />
    <glyph glyph-name="emdash" unicode="&#x2014;" horiz-adv-x="747" 
d="M665 353v-108h-583v108h583z" />
    <glyph glyph-name="endash" unicode="&#x2013;" horiz-adv-x="646" 
d="M564 353v-108h-482v108h482z" />
    <glyph glyph-name="hyphen" unicode="-" horiz-adv-x="493" 
d="M412 353v-108h-330v108h330z" />
    <glyph glyph-name="guillemotleft" unicode="&#xab;" horiz-adv-x="710" 
d="M298 63l-216 216l216 216l77 -78l-139 -138l139 -138zM552 63l-217 216l217 216l77 -78l-139 -138l139 -138z" />
    <glyph glyph-name="guillemotright" unicode="&#xbb;" horiz-adv-x="710" 
d="M159 63l-77 78l139 138l-139 138l77 78l216 -216zM413 63l-78 78l139 138l-139 138l78 78l216 -216z" />
    <glyph glyph-name="guilsinglleft" unicode="&#x2039;" horiz-adv-x="457" 
d="M298 63l-216 216l216 216l77 -78l-139 -138l139 -138z" />
    <glyph glyph-name="guilsinglright" unicode="&#x203a;" horiz-adv-x="457" 
d="M159 63l-77 78l139 138l-139 138l77 78l216 -216z" />
    <glyph glyph-name="quotedblbase" unicode="&#x201e;" horiz-adv-x="545" 
d="M179 129c31 0 74 -15 74 -75c1 -20 -2 -48 -96 -226h-75l71 164c-28 9 -47 32 -47 65c0 43 32 72 73 72zM463 54c1 -20 -3 -48 -96 -226h-76l72 164c-28 9 -47 32 -47 65c0 43 32 72 73 72c30 0 74 -15 74 -75z" />
    <glyph glyph-name="quotedblleft" unicode="&#x201c;" horiz-adv-x="545" 
d="M178 700h75l-71 -164c28 -9 47 -32 47 -65c0 -43 -32 -72 -73 -72c-31 0 -74 15 -74 75c-1 20 2 48 96 226zM391 536c29 -9 47 -32 47 -65c0 -43 -31 -72 -73 -72c-30 0 -73 15 -74 75c0 20 3 48 96 226h76z" />
    <glyph glyph-name="quotedblright" unicode="&#x201d;" horiz-adv-x="545" 
d="M179 712c31 0 74 -16 74 -76c1 -19 -2 -48 -96 -226h-75l71 164c-28 9 -47 33 -47 66c0 43 32 72 73 72zM463 636c1 -19 -3 -48 -96 -226h-76l72 164c-28 9 -47 33 -47 66c0 43 32 72 73 72c30 0 74 -16 74 -76z" />
    <glyph glyph-name="quoteleft" unicode="&#x2018;" horiz-adv-x="335" 
d="M182 536c28 -9 47 -32 47 -65c0 -43 -32 -72 -73 -72c-31 0 -74 15 -74 75c-1 20 2 48 96 226h75z" />
    <glyph glyph-name="quoteright" unicode="&#x2019;" horiz-adv-x="335" 
d="M253 636c1 -19 -2 -48 -96 -226h-75l71 164c-28 9 -47 33 -47 66c0 43 32 72 73 72c31 0 74 -16 74 -76z" />
    <glyph glyph-name="quotesinglbase" unicode="&#x201a;" horiz-adv-x="335" 
d="M253 54c1 -20 -2 -48 -96 -226h-75l71 164c-28 9 -47 32 -47 65c0 43 32 72 73 72c31 0 74 -15 74 -75z" />
    <glyph glyph-name="space" unicode=" " horiz-adv-x="300" 
 />
    <glyph glyph-name="uni2009" unicode="&#x2009;" horiz-adv-x="150" 
 />
    <glyph glyph-name="cent" unicode="&#xa2;" horiz-adv-x="642" 
d="M333 93c72 0 133 40 154 108h117c-22 -116 -109 -189 -215 -208v-143h-112v143c-135 25 -229 138 -229 282s94 257 229 282v143h112v-143c107 -19 194 -94 215 -207h-117c-21 69 -82 107 -153 107c-102 0 -172 -76 -172 -182c0 -107 72 -182 171 -182z" />
    <glyph glyph-name="currency" unicode="&#xa4;" horiz-adv-x="738" 
d="M605 349c0 -45 -12 -87 -32 -122l83 -85l-79 -80l-83 84c-36 -21 -79 -34 -125 -34s-88 13 -124 35l-83 -85l-80 80l84 84c-21 36 -32 78 -32 123c0 46 12 88 33 124l-85 84l80 80l84 -85c36 22 78 34 123 34c46 0 88 -12 124 -33l83 84l80 -80l-84 -84
c21 -36 33 -78 33 -124zM369 212c75 0 134 55 134 137c0 81 -59 137 -134 137c-73 0 -133 -55 -133 -137s60 -137 133 -137z" />
    <glyph glyph-name="dollar" unicode="$" horiz-adv-x="644" 
d="M603 201c0 -137 -110 -200 -223 -211v-114h-112v118c-144 24 -211 118 -227 223h114c21 -81 75 -123 186 -123c94 0 148 37 148 102s-57 76 -187 105c-136 30 -242 68 -242 199c0 124 95 194 210 209v115h113v-117c130 -20 194 -101 211 -197h-114c-20 58 -68 96 -162 96
s-145 -40 -145 -103c0 -50 40 -66 156 -91c177 -39 274 -76 274 -211z" />
    <glyph glyph-name="Euro" unicode="&#x20ac;" horiz-adv-x="892" 
d="M515 96c99 0 177 53 215 135h121c-44 -145 -173 -243 -335 -243c-166 0 -297 99 -343 244h-126v86h109c-1 10 -1 21 -1 32c0 10 0 20 1 30h-109v86h125c46 146 178 246 344 246c162 0 291 -98 335 -243h-121c-38 82 -116 135 -215 135c-101 0 -183 -54 -222 -138h268v-86
h-291c-1 -10 -1 -20 -1 -30c0 -11 0 -22 2 -32h290v-86h-266c39 -83 119 -136 220 -136z" />
    <glyph glyph-name="sterling" unicode="&#xa3;" horiz-adv-x="735" 
d="M559 194h114c0 -143 -65 -194 -190 -194h-421v108h39c55 0 67 24 67 70v112h-106v100h106v99c0 128 78 223 226 223c143 0 232 -89 232 -224h-114c0 69 -32 116 -112 116c-86 0 -119 -49 -119 -120v-94h191v-100h-191v-106c0 -39 -8 -61 -32 -76h219c70 0 91 18 91 86z
" />
    <glyph glyph-name="yen" unicode="&#xa5;" horiz-adv-x="744" 
d="M682 700l-228 -414h149v-62h-174v-60h174v-62h-174v-102h-113v102h-175v62h175v60h-175v62h149l-228 414h128l182 -334l182 334h128z" />
    <glyph glyph-name="approxequal" unicode="&#x2248;" horiz-adv-x="615" 
d="M419 329c-42 0 -75 20 -118 46c-45 25 -63 41 -88 41c-34 0 -50 -26 -50 -75h-81c0 110 45 157 114 157c42 0 75 -20 118 -46c45 -25 63 -41 88 -41c34 0 50 26 50 75h81c0 -110 -45 -157 -114 -157zM419 135c-42 0 -75 20 -118 46c-45 25 -63 41 -88 41
c-34 0 -50 -26 -50 -75h-81c0 110 45 157 114 157c42 0 75 -21 118 -46c45 -25 63 -41 88 -41c34 0 50 26 50 75h81c0 -110 -45 -157 -114 -157z" />
    <glyph glyph-name="asciitilde" unicode="~" horiz-adv-x="639" 
d="M434 234c-46 0 -78 21 -121 47c-44 24 -62 40 -88 40c-33 0 -49 -25 -49 -75h-94c0 131 51 176 123 176c47 0 78 -21 122 -47c44 -24 62 -40 87 -40c34 0 50 25 50 75h94c0 -131 -51 -176 -124 -176z" />
    <glyph glyph-name="divide" unicode="&#xf7;" horiz-adv-x="664" 
d="M332 556c42 0 74 -28 74 -69s-32 -69 -74 -69s-74 28 -74 69s32 69 74 69zM583 353v-108h-501v108h501zM332 180c42 0 74 -28 74 -69c0 -40 -32 -68 -74 -68s-74 28 -74 68c0 41 32 69 74 69z" />
    <glyph glyph-name="emptyset" unicode="&#x2205;" horiz-adv-x="817" 
d="M735 549l-99 -99c36 -47 57 -108 57 -175c0 -165 -125 -287 -285 -287c-66 0 -127 22 -175 59l-99 -99l-52 53l98 99c-35 47 -57 108 -57 175c0 166 128 287 285 287c67 0 128 -22 176 -59l99 99zM238 275c0 -36 8 -68 23 -94l244 244c-27 18 -60 29 -97 29
c-95 0 -170 -73 -170 -179zM579 275c0 36 -9 68 -24 94l-244 -244c28 -19 61 -29 97 -29c96 0 171 73 171 179z" />
    <glyph glyph-name="equal" unicode="=" horiz-adv-x="664" 
d="M583 458v-104h-501v104h501zM583 251v-103h-501v103h501z" />
    <glyph glyph-name="greater" unicode="&#x3e;" horiz-adv-x="664" 
d="M82 511l501 -176v-76l-501 -176v118l331 96l-331 95v119z" />
    <glyph glyph-name="greaterequal" unicode="&#x2265;" horiz-adv-x="664" 
d="M82 516l501 -121v-76l-501 -122v93l306 67l-306 67v92zM583 146v-86h-501v86h501z" />
    <glyph glyph-name="infinity" unicode="&#x221e;" horiz-adv-x="887" 
d="M625 455c105 0 181 -76 181 -180c0 -105 -77 -180 -181 -180c-77 0 -134 43 -181 102c-47 -59 -105 -102 -182 -102c-104 0 -180 75 -180 180s77 180 180 180c77 0 134 -43 182 -102c47 59 104 102 181 102zM262 185c59 0 94 39 127 90c-35 51 -68 90 -128 90
c-51 0 -85 -37 -85 -90s33 -90 86 -90zM625 185c52 0 87 37 87 90s-34 90 -87 90c-58 -1 -92 -39 -126 -90c35 -52 68 -90 126 -90z" />
    <glyph glyph-name="integral" unicode="&#x222b;" horiz-adv-x="760" 
d="M529 782c97 0 150 -59 150 -161h-79c0 35 -19 61 -61 61c-49 0 -68 -35 -74 -93l-57 -649c-10 -133 -74 -202 -177 -202c-97 0 -149 59 -149 161h78c0 -35 19 -61 62 -61c48 0 67 35 73 93l57 649c10 133 74 202 177 202z" />
    <glyph glyph-name="less" unicode="&#x3c;" horiz-adv-x="664" 
d="M583 510v-117l-332 -96l332 -96v-119l-501 177v75z" />
    <glyph glyph-name="lessequal" unicode="&#x2264;" horiz-adv-x="664" 
d="M583 516v-92l-306 -67l306 -67v-93l-501 122v76zM583 146v-86h-501v86h501z" />
    <glyph glyph-name="logicalnot" unicode="&#xac;" horiz-adv-x="664" 
d="M583 353v-239h-113v131h-388v108h501z" />
    <glyph glyph-name="minus" unicode="&#x2212;" horiz-adv-x="664" 
d="M583 353v-108h-501v108h501z" />
    <glyph glyph-name="multiply" unicode="&#xd7;" horiz-adv-x="661" 
d="M503 547l77 -77l-173 -172l173 -173l-77 -76l-173 173l-172 -173l-76 76l172 173l-172 172l76 77l172 -172z" />
    <glyph glyph-name="notequal" unicode="&#x2260;" horiz-adv-x="664" 
d="M468 606l-40 -152h155v-104h-182l-25 -95h207v-103h-235l-40 -152h-114l40 152h-152v103h179l25 95h-204v104h231l41 152h114z" />
    <glyph glyph-name="partialdiff" unicode="&#x2202;" horiz-adv-x="690" 
d="M409 712c187 0 229 -141 180 -446c-29 -176 -136 -278 -293 -278c-148 0 -235 111 -211 265c24 151 134 221 253 221c61 0 126 -22 158 -78l1 4c18 162 -32 212 -119 212c-48 0 -106 -12 -170 -40l-20 89c69 34 145 51 221 51zM471 246c12 78 -27 141 -114 141
c-81 0 -143 -50 -158 -141c-13 -89 29 -150 114 -150c83 0 144 60 158 150z" />
    <glyph glyph-name="percent" unicode="%" horiz-adv-x="1085" 
d="M271 291c-112 0 -189 73 -189 210s77 211 189 211c111 0 189 -74 189 -211s-78 -210 -189 -210zM797 700l-400 -700h-109l400 700h109zM271 379c58 0 90 39 90 122c0 84 -32 122 -90 122s-90 -38 -90 -122c0 -83 32 -122 90 -122zM815 409c111 0 189 -73 189 -210
s-78 -211 -189 -211c-112 0 -189 74 -189 211s77 210 189 210zM815 321c-59 0 -91 -39 -91 -122c0 -84 32 -122 91 -122c58 0 90 38 90 122c0 83 -32 122 -90 122z" />
    <glyph glyph-name="perthousand" unicode="&#x2030;" horiz-adv-x="1517" 
d="M271 291c-112 0 -189 73 -189 210s77 211 189 211c111 0 189 -74 189 -211s-78 -210 -189 -210zM797 700l-400 -700h-109l400 700h109zM271 379c58 0 90 39 90 122c0 84 -32 122 -90 122s-90 -38 -90 -122c0 -83 32 -122 90 -122zM815 409c111 0 189 -73 189 -210
s-78 -211 -189 -211c-112 0 -189 74 -189 211s77 210 189 210zM1246 409c112 0 189 -73 189 -210s-77 -211 -189 -211c-111 0 -189 74 -189 211s78 210 189 210zM815 321c-59 0 -91 -39 -91 -122c0 -84 32 -122 91 -122c58 0 90 38 90 122c0 83 -32 122 -90 122zM1246 321
c-58 0 -90 -39 -90 -122c0 -84 32 -122 90 -122s90 38 90 122c0 83 -32 122 -90 122z" />
    <glyph glyph-name="plus" unicode="+" horiz-adv-x="664" 
d="M389 545v-194h194v-108h-194v-194h-113v194h-194v108h194v194h113z" />
    <glyph glyph-name="plusminus" unicode="&#xb1;" horiz-adv-x="664" 
d="M389 545v-135h194v-86h-194v-138h-113v138h-194v86h194v135h113zM583 146v-86h-501v86h501z" />
    <glyph glyph-name="product" unicode="&#x220f;" horiz-adv-x="838" 
d="M757 700v-108h-94v-592h-113v592h-261v-592h-113v592h-94v108h675z" />
    <glyph glyph-name="radical" unicode="&#x221a;" horiz-adv-x="830" 
d="M631 700h118l-249 -700h-137l-158 442h-123v108h204l147 -418z" />
    <glyph glyph-name="summation" unicode="&#x2211;" horiz-adv-x="635" 
d="M553 700v-108h-312l223 -230v-24l-223 -230h312v-108h-471v101l240 249l-240 249v101h471z" />
    <glyph glyph-name="arrowup" unicode="&#x2191;" horiz-adv-x="710" 
d="M298 0v501l-137 -141l-79 79l273 273l274 -273l-80 -80l-138 143v-502h-113z" />
    <glyph glyph-name="uni2197" unicode="&#x2197;" horiz-adv-x="726" 
d="M161 50l-79 80l374 374l-198 -3v112h386l1 -387h-113l4 198z" />
    <glyph glyph-name="arrowright" unicode="&#x2192;" horiz-adv-x="902" 
d="M547 76l-79 80l143 137h-529v114h528l-142 136l79 80l274 -273z" />
    <glyph glyph-name="uni2198" unicode="&#x2198;" horiz-adv-x="726" 
d="M257 88v113l199 -4l-374 374l80 80l373 -374l-3 197l112 1v-386z" />
    <glyph glyph-name="arrowdown" unicode="&#x2193;" horiz-adv-x="710" 
d="M355 -10l-273 273l79 80l138 -143v529h113v-529l137 142l80 -79z" />
    <glyph glyph-name="uni2199" unicode="&#x2199;" horiz-adv-x="726" 
d="M82 80v387h113l-4 -198l374 374l80 -80l-374 -374l197 3v-112h-386z" />
    <glyph glyph-name="arrowleft" unicode="&#x2190;" horiz-adv-x="902" 
d="M355 87l-273 273l273 274l79 -80l-142 -137h529v-113h-529l142 -137z" />
    <glyph glyph-name="uni2196" unicode="&#x2196;" horiz-adv-x="726" 
d="M564 68l-374 374l4 -197l-112 -1v386l386 1v-113l-198 5l374 -375z" />
    <glyph glyph-name="arrowboth" unicode="&#x2194;" horiz-adv-x="1177" 
d="M823 87l-79 80l141 137h-593l142 -137l-79 -80l-273 273l273 274l79 -80l-142 -137h594l-143 137l80 80l273 -274z" />
    <glyph glyph-name="arrowupdn" unicode="&#x2195;" horiz-adv-x="710" 
d="M355 -129l-273 273l79 80l138 -143v533l-138 -143l-79 80l273 273l274 -273l-80 -79l-137 142v-533l137 142l80 -79z" />
    <glyph glyph-name="lozenge" unicode="&#x25ca;" horiz-adv-x="793" 
d="M396 618l315 -315l-315 -315l-314 315zM396 458l-155 -155l155 -155l156 155z" />
    <glyph glyph-name="bar" unicode="|" horiz-adv-x="276" 
d="M195 700v-794h-113v794h113z" />
    <glyph glyph-name="brokenbar" unicode="&#xa6;" horiz-adv-x="276" 
d="M195 700v-355h-113v355h113zM195 261v-355h-113v355h113z" />
    <glyph glyph-name="at" unicode="@" horiz-adv-x="1139" 
d="M580 782c283 0 507 -180 507 -496c0 -190 -81 -290 -210 -290c-61 0 -135 24 -161 108c-36 -65 -97 -108 -181 -108c-131 0 -227 106 -227 255c0 151 97 256 226 256c78 0 137 -39 173 -96v85h100v-318c0 -61 35 -86 77 -86c57 0 101 45 101 181c0 287 -183 413 -402 413
c-250 0 -429 -165 -429 -430c0 -267 177 -422 418 -422c72 0 138 13 195 40l20 -93c-63 -27 -135 -43 -218 -43c-299 0 -517 203 -517 518s223 526 528 526zM556 93c85 0 150 64 150 158c0 93 -65 159 -150 159s-145 -66 -145 -159s61 -158 145 -158z" />
    <glyph glyph-name="ampersand" unicode="&#x26;" horiz-adv-x="721" 
d="M680 0h-143c-18 19 -36 36 -52 54c-55 -41 -124 -66 -204 -66c-133 0 -240 63 -240 194c0 90 55 137 146 192c-56 70 -74 114 -74 162c0 116 95 176 197 176c104 0 189 -63 189 -170c0 -91 -66 -143 -152 -195c34 -37 77 -82 131 -138c16 31 28 67 35 111h115
c-8 -71 -32 -138 -71 -192c37 -39 78 -81 123 -128zM309 608c-48 0 -82 -27 -82 -79c0 -29 12 -56 50 -104c81 50 108 75 108 116c0 39 -27 67 -76 67zM288 92c45 0 87 12 123 38c-63 66 -114 119 -155 164c-69 -41 -101 -65 -101 -109c0 -55 46 -93 133 -93z" />
    <glyph glyph-name="paragraph" unicode="&#xb6;" horiz-adv-x="670" 
d="M184 700h404v-801h-113v693h-135v-693h-113v509h-43c-59 0 -102 43 -102 102v88c0 59 43 102 102 102z" />
    <glyph glyph-name="copyright" unicode="&#xa9;" horiz-adv-x="703" 
d="M352 782c149 0 270 -121 270 -270s-121 -270 -270 -270s-270 121 -270 270s121 270 270 270zM352 289c123 0 222 99 222 223c0 123 -99 222 -222 222s-222 -99 -222 -222c0 -124 99 -223 222 -223zM353 596c-46 0 -80 -35 -80 -84c0 -50 34 -84 80 -84c33 0 59 17 70 47
h62c-14 -63 -69 -103 -132 -103c-79 0 -139 60 -139 140s60 140 139 140c63 0 118 -40 132 -103h-62c-11 29 -37 47 -70 47z" />
    <glyph glyph-name="registered" unicode="&#xae;" horiz-adv-x="703" 
d="M352 782c149 0 270 -121 270 -270s-121 -270 -270 -270s-270 121 -270 270s121 270 270 270zM352 289c123 0 222 99 222 223c0 123 -99 222 -222 222s-223 -99 -223 -222c0 -124 100 -223 223 -223zM467 558c0 -43 -25 -73 -67 -82l78 -101h-70l-74 98h-27v-98h-58v269
h130c58 0 88 -35 88 -86zM307 594v-76h56c34 0 45 14 45 39c0 24 -11 37 -45 37h-56z" />
    <glyph glyph-name="section" unicode="&#xa7;" horiz-adv-x="644" 
d="M477 187c51 -24 78 -58 78 -118c0 -114 -92 -175 -226 -175c-131 0 -218 58 -239 163h115c16 -55 68 -76 127 -76c65 0 109 27 109 76c0 35 -28 44 -120 66c-137 33 -238 58 -238 164c0 61 33 99 83 131c-51 25 -78 58 -78 119c0 114 97 175 229 175
c130 0 215 -56 236 -160h-114c-16 53 -67 73 -125 73c-63 0 -112 -27 -112 -76c0 -35 29 -44 121 -66c136 -33 237 -58 237 -165c0 -60 -32 -98 -83 -131zM200 311c0 -48 40 -55 146 -82c15 -4 30 -7 43 -11c37 24 55 45 55 77c0 48 -40 55 -146 82c-15 3 -30 7 -44 11
c-36 -24 -54 -45 -54 -77z" />
    <glyph glyph-name="trademark" unicode="&#x2122;" horiz-adv-x="833" 
d="M82 706v64h264v-64h-98v-242h-69v242h-97zM674 770h77v-306h-68v214l-104 -141h-4l-104 141v-214h-68v306h77l97 -132z" />
    <glyph glyph-name="degree" unicode="&#xb0;" horiz-adv-x="506" 
d="M253 782c96 0 172 -76 172 -171s-77 -172 -172 -172c-94 0 -172 77 -171 172c-1 95 76 171 171 171zM253 700c-49 0 -89 -39 -88 -90c-1 -51 39 -90 88 -90s89 39 89 90s-40 90 -89 90z" />
    <glyph glyph-name="uni2116" unicode="&#x2116;" horiz-adv-x="1235" 
d="M951 309c-114 0 -204 88 -204 201c0 114 90 202 204 202c112 0 203 -88 203 -202s-90 -201 -203 -201zM555 407v293h114v-700h-134l-351 541l11 -248v-293h-113v700h134l349 -540zM951 618c-61 0 -108 -48 -108 -108c0 -61 47 -108 108 -108c60 0 106 47 106 108
c0 60 -46 108 -106 108zM760 163v86h382v-86h-382zM760 0v86h382v-86h-382z" />
    <glyph glyph-name="asciicircum" unicode="^" horiz-adv-x="600" 
d="M300 712l218 -219l-79 -79l-139 138l-139 -138l-79 79z" />
    <glyph glyph-name="dagger" unicode="&#x2020;" horiz-adv-x="591" 
d="M352 700v-205h158v-108h-158v-488h-113v488h-157v108h157v205h113z" />
    <glyph glyph-name="daggerdbl" unicode="&#x2021;" horiz-adv-x="591" 
d="M352 700v-174h158v-108h-158v-179h158v-108h-158v-232h-113v232h-157v108h157v179h-157v108h157v174h113z" />
    <glyph glyph-name="uni0308" unicode="&#x308;" 
d="M-377 793c39 0 67 -27 67 -64c0 -38 -28 -65 -67 -65c-38 0 -67 27 -67 65c0 37 29 64 67 64zM-150 793c39 0 68 -27 68 -64c0 -38 -29 -65 -68 -65s-68 27 -68 65c0 37 29 64 68 64z" />
    <glyph glyph-name="uni0307" unicode="&#x307;" 
d="M-149 798c43 0 74 -29 74 -69c0 -41 -31 -71 -74 -71c-41 0 -73 30 -73 71c0 40 32 69 73 69z" />
    <glyph glyph-name="gravecomb" unicode="&#x300;" 
d="M-246 839l164 -164l-52 -51l-179 147z" />
    <glyph glyph-name="acutecomb" unicode="&#x301;" 
d="M-150 840l68 -68l-180 -147l-51 52z" />
    <glyph glyph-name="uni030B" unicode="&#x30b;" 
d="M-286 848l70 -34l-118 -189l-51 25zM-152 848l70 -34l-118 -189l-51 25z" />
    <glyph glyph-name="uni0302" unicode="&#x302;" 
d="M-81 686l-62 -61l-102 109l-102 -109l-61 61l163 164z" />
    <glyph glyph-name="uni030C" unicode="&#x30c;" 
d="M-81 789l-164 -164l-163 164l61 61l102 -108l102 108z" />
    <glyph glyph-name="uni0306" unicode="&#x306;" 
d="M-79 811v-23c0 -97 -76 -155 -163 -155c-88 0 -164 58 -164 155v23h90v-19c0 -45 29 -73 74 -73c44 0 73 28 73 73v19h90z" />
    <glyph glyph-name="uni030A" unicode="&#x30a;" 
d="M-208 877c70 0 127 -56 126 -126c1 -69 -57 -126 -126 -126s-125 57 -125 126c0 70 55 126 125 126zM-208 811c-32 0 -59 -26 -58 -60c-1 -35 26 -60 58 -60c33 0 59 25 59 60c0 34 -26 60 -59 60z" />
    <glyph glyph-name="tildecomb" unicode="&#x303;" 
d="M-152 794h70c0 -112 -43 -152 -104 -152c-32 0 -50 12 -81 38c-21 18 -38 33 -60 33c-25 0 -37 -22 -37 -63h-70c0 111 42 151 103 151c33 0 50 -12 81 -38c22 -18 39 -33 60 -33c25 0 38 22 38 64z" />
    <glyph glyph-name="uni0304" unicode="&#x304;" 
d="M-82 770v-83h-250v83h250z" />
    <glyph glyph-name="uni0312" unicode="&#x312;" 
d="M-131 725c27 -5 44 -21 44 -47c0 -33 -28 -53 -58 -53c-28 0 -57 19 -57 53c-1 18 7 42 53 134h64z" />
    <glyph glyph-name="uni0326" unicode="&#x326;" 
d="M-82 -117c1 -18 -7 -42 -53 -133h-65l47 87c-27 4 -44 21 -44 46c0 33 28 53 58 53c28 0 56 -18 57 -53z" />
    <glyph glyph-name="uni0327" unicode="&#x327;" 
d="M-173 -79c47 -9 91 -36 91 -90c0 -63 -59 -93 -145 -93c-24 0 -51 3 -59 4v58c8 -1 26 -4 46 -4c42 0 70 13 70 41c0 25 -22 44 -91 50l49 113h78z" />
    <glyph glyph-name="uni0328" unicode="&#x328;" 
d="M-82 -258c-8 -1 -39 -4 -61 -4c-75 0 -129 28 -129 96c0 61 46 105 115 168l75 -2c-70 -77 -102 -113 -102 -152c0 -32 21 -46 59 -46c18 0 35 3 43 5v-65z" />
    <glyph glyph-name="uni0335" unicode="&#x335;" 
d="M-82 353v-108h-299v108h299z" />
    <glyph glyph-name="uni0337" unicode="&#x337;" 
d="M-82 550l-394 -550h-85l393 550h86z" />
    <glyph glyph-name="uni0338" unicode="&#x338;" 
d="M-81 770l-365 -770h-114l364 770h115z" />
    <glyph glyph-name="uni0308.case" 
d="M-377 939c39 0 67 -28 67 -65s-28 -65 -67 -65c-38 0 -67 28 -67 65s29 65 67 65zM-150 939c39 0 68 -28 68 -65s-29 -65 -68 -65s-68 28 -68 65s29 65 68 65z" />
    <glyph glyph-name="uni0307.case" 
d="M-149 939c39 0 67 -28 67 -65s-28 -65 -67 -65c-38 0 -67 28 -67 65s29 65 67 65z" />
    <glyph glyph-name="gravecomb.case" 
d="M-246 985l164 -164l-52 -51l-179 147z" />
    <glyph glyph-name="acutecomb.case" 
d="M-150 985l68 -68l-180 -147l-51 51z" />
    <glyph glyph-name="uni030B.case" 
d="M-286 992l70 -33l-118 -189l-51 25zM-152 992l70 -33l-118 -189l-51 25z" />
    <glyph glyph-name="uni0302.case" 
d="M-81 831l-62 -61l-102 108l-102 -108l-61 61l163 164z" />
    <glyph glyph-name="uni030C.case" 
d="M-81 936l-164 -164l-163 164l61 61l102 -108l102 108z" />
    <glyph glyph-name="uni0306.case" 
d="M-79 955v-22c0 -97 -76 -156 -163 -156c-88 0 -164 59 -164 156v22h90v-19c0 -44 29 -72 74 -72c44 0 73 28 73 72v19h90z" />
    <glyph glyph-name="uni030A.case" 
d="M-208 1022c70 0 127 -56 126 -126c1 -70 -57 -126 -126 -126s-125 56 -125 126s55 126 125 126zM-208 955c-32 0 -59 -25 -58 -60c-1 -34 26 -60 58 -60c33 0 59 26 59 60c0 35 -26 60 -59 60z" />
    <glyph glyph-name="tildecomb.case" 
d="M-152 933h70c0 -111 -43 -152 -104 -152c-32 0 -50 12 -81 38c-21 18 -38 33 -60 33c-25 0 -37 -21 -37 -63h-70c0 111 42 151 103 151c33 0 50 -12 81 -38c22 -18 39 -33 60 -33c25 0 38 22 38 64z" />
    <glyph glyph-name="uni0304.case" 
d="M-82 915v-84h-250v84h250z" />
    <glyph glyph-name="uni0327.case" 
d="M-173 -79c47 -9 91 -36 91 -90c0 -63 -59 -93 -145 -93c-24 0 -51 3 -59 4v58c8 -1 26 -4 46 -4c42 0 70 13 70 41c0 25 -22 44 -91 50l49 113h78z" />
    <glyph glyph-name="uni0328.case" 
d="M-82 -258c-8 -1 -39 -4 -61 -4c-75 0 -129 28 -129 96c0 61 48 105 115 166h75c-70 -77 -102 -113 -102 -152c0 -32 21 -46 59 -46c18 0 35 3 43 5v-65z" />
    <glyph glyph-name="acute" unicode="&#xb4;" horiz-adv-x="395" 
d="M245 840l68 -68l-180 -147l-51 52z" />
    <glyph glyph-name="breve" unicode="&#x2d8;" horiz-adv-x="485" 
d="M406 811v-23c0 -97 -76 -155 -163 -155c-88 0 -164 58 -164 155v23h90v-19c0 -45 29 -73 74 -73c44 0 73 28 73 73v19h90z" />
    <glyph glyph-name="caron" unicode="&#x2c7;" horiz-adv-x="490" 
d="M409 789l-164 -164l-163 164l61 61l102 -108l102 108z" />
    <glyph glyph-name="cedilla" unicode="&#xb8;" horiz-adv-x="355" 
d="M195 -79c47 -9 91 -36 91 -90c0 -63 -59 -93 -145 -93c-24 0 -51 3 -59 4v58c8 -1 26 -4 46 -4c42 0 70 13 70 41c0 25 -22 44 -91 50l49 113h78z" />
    <glyph glyph-name="circumflex" unicode="&#x2c6;" horiz-adv-x="490" 
d="M409 686l-62 -61l-102 109l-102 -109l-61 61l163 164z" />
    <glyph glyph-name="dieresis" unicode="&#xa8;" horiz-adv-x="526" 
d="M149 793c39 0 67 -27 67 -64c0 -38 -28 -65 -67 -65c-38 0 -67 27 -67 65c0 37 29 64 67 64zM376 793c39 0 68 -27 68 -64c0 -38 -29 -65 -68 -65s-68 27 -68 65c0 37 29 64 68 64z" />
    <glyph glyph-name="dotaccent" unicode="&#x2d9;" horiz-adv-x="298" 
d="M149 798c43 0 74 -29 74 -69c0 -41 -31 -71 -74 -71c-41 0 -73 30 -73 71c0 40 32 69 73 69z" />
    <glyph glyph-name="grave" unicode="`" horiz-adv-x="395" 
d="M149 839l164 -164l-52 -51l-179 147z" />
    <glyph glyph-name="hungarumlaut" unicode="&#x2dd;" horiz-adv-x="467" 
d="M181 848l70 -34l-118 -189l-51 25zM315 848l70 -34l-118 -189l-51 25z" />
    <glyph glyph-name="macron" unicode="&#xaf;" horiz-adv-x="414" 
d="M332 770v-83h-250v83h250z" />
    <glyph glyph-name="ogonek" unicode="&#x2db;" horiz-adv-x="342" 
d="M272 -258c-8 -1 -39 -4 -61 -4c-75 0 -129 28 -129 96c0 61 46 105 115 168l75 -2c-70 -77 -102 -113 -102 -152c0 -32 21 -46 59 -46c18 0 35 3 43 5v-65z" />
    <glyph glyph-name="ring" unicode="&#x2da;" horiz-adv-x="415" 
d="M207 877c70 0 127 -56 126 -126c1 -69 -57 -126 -126 -126s-125 57 -125 126c0 70 55 126 125 126zM207 811c-32 0 -59 -26 -58 -60c-1 -35 26 -60 58 -60c33 0 59 25 59 60c0 34 -26 60 -59 60z" />
    <glyph glyph-name="tilde" unicode="&#x2dc;" horiz-adv-x="507" 
d="M364 794h70c0 -112 -43 -152 -104 -152c-32 0 -50 12 -81 38c-21 18 -38 33 -60 33c-25 0 -37 -22 -37 -63h-70c0 111 42 151 103 151c33 0 50 -12 81 -38c22 -18 39 -33 60 -33c25 0 38 22 38 64z" />
    <glyph glyph-name="newGlyph" horiz-adv-x="600" 
 />
    <glyph glyph-name="Bitcoinsymbol" horiz-adv-x="657" 
d="M616 198c0 -98 -53 -165 -149 -189v-134h-100v125h-110v-125h-101v125h-74v700h74v124h101v-124h110v124h100v-135c82 -23 127 -81 127 -169c0 -73 -31 -119 -93 -148c78 -24 115 -91 115 -174zM479 502c0 61 -32 90 -113 90h-171v-183h172c82 0 112 34 112 93zM382 108
c92 0 120 39 120 99c0 62 -30 99 -122 99h-185v-198h187z" />
    </font>
</defs>
</svg>
